<svg xmlns="http://www.w3.org/2000/svg" xmlns:xlink="http://www.w3.org/1999/xlink" width="893.802" height="694.583" viewBox="0 0 893.802 694.583">
  <defs>
    <linearGradient id="linear-gradient" x1="0.5" y1="1.9" x2="0.5" y2="-0.534" gradientUnits="objectBoundingBox">
      <stop offset="0" stop-color="#d5e4ff"/>
      <stop offset="1" stop-color="#edfffe"/>
    </linearGradient>
    <linearGradient id="linear-gradient-2" x1="30.093" y1="-28.207" x2="30.093" y2="-29.087" gradientUnits="objectBoundingBox">
      <stop offset="0.005" stop-color="#3c6127"/>
      <stop offset="1" stop-color="#639c38"/>
    </linearGradient>
    <linearGradient id="linear-gradient-3" x1="27.11" y1="-58.072" x2="27.11" y2="-59.288" xlink:href="#linear-gradient-2"/>
    <linearGradient id="linear-gradient-4" x1="0.25" y1="0.002" x2="0.922" y2="1.342" xlink:href="#linear-gradient"/>
    <linearGradient id="linear-gradient-5" y1="0.5" x2="1" y2="0.5" gradientUnits="objectBoundingBox">
      <stop offset="0" stop-color="#ffc05c"/>
      <stop offset="1" stop-color="#ff3857"/>
    </linearGradient>
    <linearGradient id="linear-gradient-6" y1="0.5" x2="1" y2="0.5" gradientUnits="objectBoundingBox">
      <stop offset="0" stop-color="#40d5e6"/>
      <stop offset="1" stop-color="#57f"/>
    </linearGradient>
    <linearGradient id="linear-gradient-7" x1="1.488" y1="0.5" x2="-0.668" y2="0.5" xlink:href="#linear-gradient-6"/>
    <linearGradient id="linear-gradient-8" x1="1.378" y1="0.5" x2="-0.618" y2="0.5" xlink:href="#linear-gradient-6"/>
    <linearGradient id="linear-gradient-9" x1="2.123" y1="0.5" x2="-0.952" y2="0.5" xlink:href="#linear-gradient-6"/>
    <linearGradient id="linear-gradient-11" x1="0.5" y1="-1.823" x2="0.5" y2="4.51" xlink:href="#linear-gradient-6"/>
    <linearGradient id="linear-gradient-12" x1="0.5" y1="-1.484" x2="0.5" y2="1.601" xlink:href="#linear-gradient-6"/>
    <linearGradient id="linear-gradient-13" x1="0.5" y1="0.122" x2="0.5" y2="1.268" xlink:href="#linear-gradient-6"/>
    <linearGradient id="linear-gradient-14" x1="-2.409" y1="0.5" x2="-1.395" y2="0.5" gradientUnits="objectBoundingBox">
      <stop offset="0" stop-color="#ff9f55"/>
      <stop offset="1" stop-color="#ffd255"/>
    </linearGradient>
  </defs>
  <g id="Group_2" data-name="Group 2" transform="translate(-262.29 -188.663)">
    <g id="Group_74" data-name="Group 74" transform="translate(262.29 188.662)">
      <path id="Rectangle_5" data-name="Rectangle 5" d="M5.769,0H332.594a5.769,5.769,0,0,1,5.769,5.769v48.4a5.768,5.768,0,0,1-5.768,5.768H5.768A5.768,5.768,0,0,1,0,54.17V5.769A5.769,5.769,0,0,1,5.769,0Z" transform="translate(275.247 508.627)" fill="url(#linear-gradient)"/>
      <g id="Group_3" data-name="Group 3" transform="translate(707.406 21.59)">
        <path id="Path_11" data-name="Path 11" d="M667.638,252.082c-21.082,4.1-29.036,45.058-30.5,53.793-.185,1.044-.265,1.636-.265,1.636a60.031,60.031,0,0,1-4.3-4.379c-23.17-25.966-34.194-78.7-5.252-92.063,30.684-14.164,17.847-43.782,22.763-69.4s46.786-38.337,46.786-38.337-14.9,29.714-3.294,68.993S691.245,247.487,667.638,252.082Z" transform="translate(-609.948 -103.33)" fill="#609a3e"/>
        <g id="Group_2-2" data-name="Group 2" transform="translate(15.282 70.879)">
          <path id="Path_12" data-name="Path 12" d="M629.1,271.466a60.031,60.031,0,0,1-4.3-4.379c-7.118-15.385-13.09-38.73,2.269-58.351,5.5-7.024,10.443-12.795,14.809-17.9,15.533-18.164,23.337-27.276,22.291-52.676l3.07.179c1.087,26.328-7.423,36.268-22.861,54.31-4.34,5.079-9.258,10.833-14.724,17.81-15.843,20.26-7.785,44.808-.3,59.367C629.184,270.874,629.1,271.466,629.1,271.466Z" transform="translate(-617.459 -138.164)" fill="url(#linear-gradient-2)"/>
        </g>
      </g>
      <g id="Group_5" data-name="Group 5" transform="translate(682.745 55.585)">
        <path id="Path_13" data-name="Path 13" d="M655.061,295.011c-22.378,25.508-33.539,37.458-46.963,23.892a21.11,21.11,0,0,1-1.691-1.915,40.838,40.838,0,0,1-3.276-4.784c-15.875-26.643,4.428-97.543,53.728-109.463s23.371-48.051,51.354-72.711c29.877-26.328,63.682,7.685,63.682,7.685-23.406-7.476-43,64.824-58.786,100.345C694.019,281.026,680.132,266.441,655.061,295.011Z" transform="translate(-597.829 -120.037)" fill="#609a3e"/>
        <g id="Group_4" data-name="Group 4" transform="translate(8.579 26.014)">
          <path id="Path_14" data-name="Path 14" d="M603.736,305.674a21.11,21.11,0,0,1-1.691-1.915C607,279.834,623.811,241,644.5,231.439c31.7-14.669,48.393-33.946,54.1-62.5,6.713-33.625,28.829-36.1,29.052-36.117l.181,1.992c-.2.024-20.873,2.43-27.278,34.526-5.836,29.236-22.867,48.944-55.226,63.912-11.256,5.2-22.981,20.647-32.16,42.364A155.61,155.61,0,0,0,603.736,305.674Z" transform="translate(-602.045 -132.822)" fill="url(#linear-gradient-3)"/>
        </g>
      </g>
      <rect id="Rectangle_6" data-name="Rectangle 6" width="597.378" height="538.597" rx="11.814" transform="translate(153.926)" fill="url(#linear-gradient-4)"/>
      <g id="Group_13" data-name="Group 13" transform="translate(189.093 250.74)">
        <g id="Group_6" data-name="Group 6" transform="translate(0 17.081)">
          <rect id="Rectangle_7" data-name="Rectangle 7" width="1.321" height="138.621" fill="#e0e0e0"/>
        </g>
        <g id="Group_7" data-name="Group 7" transform="translate(93.945 17.081)">
          <rect id="Rectangle_8" data-name="Rectangle 8" width="1.321" height="138.621" fill="#e0e0e0"/>
        </g>
        <g id="Group_8" data-name="Group 8" transform="translate(187.89 17.081)">
          <rect id="Rectangle_9" data-name="Rectangle 9" width="1.321" height="138.621" fill="#e0e0e0"/>
        </g>
        <g id="Group_9" data-name="Group 9" transform="translate(281.836 17.081)">
          <rect id="Rectangle_10" data-name="Rectangle 10" width="1.322" height="138.621" fill="#e0e0e0"/>
        </g>
        <g id="Group_10" data-name="Group 10" transform="translate(375.781 17.081)">
          <rect id="Rectangle_11" data-name="Rectangle 11" width="1.321" height="138.621" fill="#e0e0e0"/>
        </g>
        <rect id="Rectangle_12" data-name="Rectangle 12" width="14.945" height="4.819" transform="translate(0.662 163.915)" fill="#b8b8b8"/>
        <rect id="Rectangle_13" data-name="Rectangle 13" width="22.502" height="3.613" transform="translate(0.662)" fill="#d9d9d9"/>
        <rect id="Rectangle_14" data-name="Rectangle 14" width="31.918" height="3.613" transform="translate(0.662 6.679)" fill="#d9d9d9"/>
        <rect id="Rectangle_15" data-name="Rectangle 15" width="26.418" height="3.613" transform="translate(93.593)" fill="#d9d9d9"/>
        <rect id="Rectangle_16" data-name="Rectangle 16" width="16.892" height="3.613" transform="translate(93.593 6.679)" fill="#d9d9d9"/>
        <rect id="Rectangle_17" data-name="Rectangle 17" width="16.372" height="3.613" transform="translate(189.212)" fill="#d9d9d9"/>
        <rect id="Rectangle_18" data-name="Rectangle 18" width="19.08" height="3.613" transform="translate(189.212 6.679)" fill="#d9d9d9"/>
        <rect id="Rectangle_19" data-name="Rectangle 19" width="23.847" height="3.613" transform="translate(283.157)" fill="#d9d9d9"/>
        <rect id="Rectangle_20" data-name="Rectangle 20" width="19.082" height="3.613" transform="translate(283.157 6.679)" fill="#d9d9d9"/>
        <rect id="Rectangle_21" data-name="Rectangle 21" width="14.243" height="3.613" transform="translate(376.443)" fill="#d9d9d9"/>
        <rect id="Rectangle_22" data-name="Rectangle 22" width="11.396" height="3.613" transform="translate(376.443 6.679)" fill="#d9d9d9"/>
        <rect id="Rectangle_23" data-name="Rectangle 23" width="14.945" height="4.819" transform="translate(94.607 163.915)" fill="#b8b8b8"/>
        <rect id="Rectangle_24" data-name="Rectangle 24" width="14.947" height="4.819" transform="translate(189.212 163.915)" fill="#b8b8b8"/>
        <rect id="Rectangle_25" data-name="Rectangle 25" width="14.947" height="4.819" transform="translate(283.157 163.915)" fill="#b8b8b8"/>
        <rect id="Rectangle_26" data-name="Rectangle 26" width="14.947" height="4.819" transform="translate(377.102 163.915)" fill="#b8b8b8"/>
        <g id="Group_11" data-name="Group 11" transform="translate(0.662 53.02)">
          <path id="Path_15" data-name="Path 15" d="M698.771,303.5c-29.3,0-54.774-12.668-81.33-25.872-32.784-16.3-66.684-33.161-111.847-28.546-28.843,2.948-46.944,14.693-62.917,25.056-14.459,9.382-28.133,17.635-46.651,18.337-29.925,1.139-40.307-11.623-40.48-12.4v-8.192h0c.035.142,6.57,14.469,40.449,14.3,16.683-.083,29-8.074,43.257-17.324,16.567-10.75,35.348-22.934,65.7-26.037,46.975-4.8,81.706,12.467,115.292,29.168,35.143,17.477,68.678,33.865,111.082,19.646v6.735A95.789,95.789,0,0,1,698.771,303.5Z" transform="translate(-355.546 -242.004)" fill="url(#linear-gradient-5)"/>
        </g>
        <g id="Group_12" data-name="Group 12" transform="translate(0.662 34.254)">
          <path id="Path_16" data-name="Path 16" d="M522.884,311.473c-21.63,0-38.781-14.544-55.576-28.784-12.736-10.8-25.945-21.835-41.2-27.28-46.543-16.618-70.354,13.725-70.566,13.991v-9.23c.25-.315,4.5-5.83,16.787-11.1,11.187-4.794,29.956-8.619,55.846.385,16.4,5.708,30.025,17.257,43.2,28.426,26.723,22.657,49.8,42.226,89.884,11.576,30.359-23.215,58.976-45.337,87.135-53.417,27.539-7.905,56.249-2.118,83.127,24.757l-.2,8.381c-57.092-57.342-105.7-21.011-166.239,25.28C549.053,306.724,535.237,311.471,522.884,311.473Z" transform="translate(-355.546 -232.781)" fill="url(#linear-gradient-6)"/>
        </g>
      </g>
      <g id="Group_22" data-name="Group 22" transform="translate(185.213 57.966)">
        <g id="Group_15" data-name="Group 15">
          <g id="Group_14" data-name="Group 14">
            <path id="Path_17" data-name="Path 17" d="M413.417,122.206A50.185,50.185,0,1,0,393.6,220.6q1.66.333,3.319.555a50.186,50.186,0,0,0,16.5-98.949Zm26.975,56.626a37.584,37.584,0,0,1-41.827,29.87c-.828-.112-1.66-.248-2.489-.415a37.626,37.626,0,1,1,44.315-29.455Z" transform="translate(-353.314 -121.207)" fill="#fff"/>
          </g>
        </g>
        <g id="Group_17" data-name="Group 17" transform="translate(0 25.585)">
          <g id="Group_16" data-name="Group 16">
            <path id="Path_18" data-name="Path 18" d="M375.367,183.368l-9.395,8.339a50.265,50.265,0,0,1-6.218-57.926l10.949,6.161a37.671,37.671,0,0,0,4.664,43.426Z" transform="translate(-353.314 -133.781)" fill="#1a598c"/>
          </g>
        </g>
        <g id="Group_19" data-name="Group 19" transform="translate(12.659 75.172)">
          <g id="Group_18" data-name="Group 18">
            <path id="Path_19" data-name="Path 19" d="M392.128,170.474l-1.65,12.453q-1.657-.223-3.319-.555a49.965,49.965,0,0,1-27.624-15.881l9.395-8.339a37.45,37.45,0,0,0,20.71,11.908C390.468,170.225,391.3,170.362,392.128,170.474Z" transform="translate(-359.535 -158.151)" fill="#2273b5"/>
          </g>
        </g>
        <g id="Group_21" data-name="Group 21" transform="translate(43.602 87.334)">
          <g id="Group_20" data-name="Group 20">
            <path id="Path_20" data-name="Path 20" d="M389.457,176.526a50.06,50.06,0,0,1-14.715.216l1.65-12.453a37.463,37.463,0,0,0,11.033-.161Z" transform="translate(-374.742 -164.128)" fill="#3d96e0"/>
          </g>
        </g>
      </g>
      <g id="Group_31" data-name="Group 31" transform="translate(323.857 57.961)">
        <g id="Group_24" data-name="Group 24">
          <g id="Group_23" data-name="Group 23">
            <path id="Path_21" data-name="Path 21" d="M517.82,191.063a50.183,50.183,0,1,0-92.344-39.318q-.665,1.557-1.217,3.136a50.185,50.185,0,0,0,93.561,36.182Zm-60.911,14.96a37.584,37.584,0,0,1-20.789-47.007c.277-.789.578-1.573.91-2.352a37.627,37.627,0,1,1,19.88,49.36Z" transform="translate(-421.451 -121.205)" fill="#fff"/>
          </g>
        </g>
        <g id="Group_26" data-name="Group 26" transform="translate(25.164)">
          <g id="Group_25" data-name="Group 25">
            <path id="Path_22" data-name="Path 22" d="M440.083,138.791l-6.265-10.89a50.256,50.256,0,0,1,57.985,5.634l-8.245,9.476a37.686,37.686,0,0,0-43.475-4.22Z" transform="translate(-433.818 -121.205)" fill="#4b59c7"/>
          </g>
        </g>
        <g id="Group_28" data-name="Group 28" transform="translate(2.808 6.696)">
          <g id="Group_27" data-name="Group 27">
            <path id="Path_23" data-name="Path 23" d="M434.692,155.61l-11.861-4.135q.552-1.578,1.217-3.136A49.957,49.957,0,0,1,445.187,124.5l6.265,10.89A37.443,37.443,0,0,0,435.6,153.257C435.27,154.037,434.968,154.82,434.692,155.61Z" transform="translate(-422.831 -124.496)" fill="#6f5be0"/>
          </g>
        </g>
        <g id="Group_30" data-name="Group 30" transform="translate(0.042 33.675)">
          <g id="Group_29" data-name="Group 29">
            <path id="Path_24" data-name="Path 24" d="M421.472,152.208a49.857,49.857,0,0,1,2.765-14.453L436.1,141.89a37.432,37.432,0,0,0-2.075,10.837Z" transform="translate(-421.472 -137.755)" fill="#b487fe"/>
          </g>
        </g>
      </g>
      <g id="Group_40" data-name="Group 40" transform="translate(462.51 57.972)">
        <g id="Group_33" data-name="Group 33">
          <g id="Group_32" data-name="Group 32">
            <path id="Path_25" data-name="Path 25" d="M569.753,131.149a50.183,50.183,0,1,0-59.944,80.5c.905.674,1.827,1.316,2.761,1.919a50.185,50.185,0,0,0,57.183-82.418Zm.206,62.722a37.583,37.583,0,0,1-50.578,9.142q-1.05-.681-2.071-1.439a37.626,37.626,0,1,1,52.65-7.7Z" transform="translate(-489.593 -121.21)" fill="#fff"/>
          </g>
        </g>
        <g id="Group_35" data-name="Group 35" transform="translate(0 9.249)">
          <g id="Group_34" data-name="Group 34">
            <path id="Path_26" data-name="Path 26" d="M503.668,177.26l-12.056,3.526a50.247,50.247,0,0,1,19.119-55.03L518,136a37.676,37.676,0,0,0-14.333,41.259Z" transform="translate(-489.593 -125.756)" fill="#1a598c"/>
          </g>
        </g>
        <g id="Group_37" data-name="Group 37" transform="translate(2.019 60.753)">
          <g id="Group_36" data-name="Group 36">
            <path id="Path_27" data-name="Path 27" d="M518.354,172.118l-6.81,10.554c-.934-.6-1.856-1.245-2.761-1.919a49.981,49.981,0,0,1-18.2-26.159l12.056-3.526a37.463,37.463,0,0,0,13.641,19.611Q517.3,171.436,518.354,172.118Z" transform="translate(-490.585 -151.068)" fill="#2273b5"/>
          </g>
        </g>
        <g id="Group_39" data-name="Group 39" transform="translate(22.977 81.803)">
          <g id="Group_38" data-name="Group 38">
            <path id="Path_28" data-name="Path 28" d="M514.284,178.057a49.963,49.963,0,0,1-13.4-6.09l6.81-10.554a37.429,37.429,0,0,0,10.046,4.568Z" transform="translate(-500.885 -161.413)" fill="#3788cc"/>
          </g>
        </g>
      </g>
      <rect id="Rectangle_27" data-name="Rectangle 27" width="100.397" height="7.742" transform="translate(185.208 182.201)" fill="#c4c4c4"/>
      <rect id="Rectangle_28" data-name="Rectangle 28" width="75.132" height="7.742" transform="translate(185.208 198.656)" fill="#c4c4c4"/>
      <rect id="Rectangle_29" data-name="Rectangle 29" width="55.36" height="7.742" transform="translate(323.855 182.201)" fill="#c4c4c4"/>
      <rect id="Rectangle_30" data-name="Rectangle 30" width="82.174" height="7.742" transform="translate(323.855 198.656)" fill="#c4c4c4"/>
      <rect id="Rectangle_31" data-name="Rectangle 31" width="61.528" height="7.742" transform="translate(471.61 182.201)" fill="#c4c4c4"/>
      <rect id="Rectangle_32" data-name="Rectangle 32" width="71.267" height="7.742" transform="translate(471.61 198.656)" fill="#c4c4c4"/>
      <rect id="Rectangle_33" data-name="Rectangle 33" width="73.007" height="7.326" transform="translate(627.352 81.754)" fill="#b8d6ff"/>
      <rect id="Rectangle_34" data-name="Rectangle 34" width="83.913" height="7.326" transform="translate(627.352 104.429)" fill="#b8d6ff"/>
      <rect id="Rectangle_35" data-name="Rectangle 35" width="43.414" height="7.324" transform="translate(627.227 126.981)" fill="#b8d6ff"/>
      <rect id="Rectangle_36" data-name="Rectangle 36" width="66.889" height="7.326" transform="translate(627.227 149.53)" fill="#b8d6ff"/>
      <rect id="Rectangle_37" data-name="Rectangle 37" width="319.459" height="7.493" transform="translate(185.208 464.188)" fill="#fff"/>
      <rect id="Rectangle_38" data-name="Rectangle 38" width="345.182" height="7.493" transform="translate(185.208 481.671)" fill="#fff"/>
      <rect id="Rectangle_39" data-name="Rectangle 39" width="223.976" height="7.491" transform="translate(185.208 499.153)" fill="#fff"/>
      <rect id="Rectangle_40" data-name="Rectangle 40" width="166.341" height="7.493" transform="translate(185.208 464.188)" fill="url(#linear-gradient-7)"/>
      <rect id="Rectangle_41" data-name="Rectangle 41" width="179.734" height="7.493" transform="translate(185.208 481.671)" fill="url(#linear-gradient-8)"/>
      <rect id="Rectangle_42" data-name="Rectangle 42" width="116.622" height="7.491" transform="translate(185.208 499.153)" fill="url(#linear-gradient-9)"/>
      <rect id="Rectangle_43" data-name="Rectangle 43" width="253.333" height="364.649" rx="12.163" transform="translate(589.615 213.244)" fill="#fff" opacity="0.73"/>
      <g id="Group_46" data-name="Group 46" transform="translate(618.664 395.568)">
        <g id="Group_41" data-name="Group 41">
          <rect id="Rectangle_44" data-name="Rectangle 44" width="0.999" height="128.085" fill="#42cde8"/>
        </g>
        <g id="Group_42" data-name="Group 42" transform="translate(48.558)">
          <rect id="Rectangle_45" data-name="Rectangle 45" width="0.999" height="128.085" fill="#42cde8"/>
        </g>
        <g id="Group_43" data-name="Group 43" transform="translate(97.119)">
          <rect id="Rectangle_46" data-name="Rectangle 46" width="0.999" height="128.085" fill="#42cde8"/>
        </g>
        <g id="Group_44" data-name="Group 44" transform="translate(145.677)">
          <rect id="Rectangle_47" data-name="Rectangle 47" width="0.999" height="128.085" fill="#42cde8"/>
        </g>
        <g id="Group_45" data-name="Group 45" transform="translate(194.237)">
          <rect id="Rectangle_48" data-name="Rectangle 48" width="0.997" height="128.085" fill="#42cde8"/>
        </g>
      </g>
      <path id="Path_29" data-name="Path 29" d="M566.581,358.62s18,10.906,37.122-8.829,39.747-35.318,59.246-18.7,31.5,20.773,51,2.08,18-41.55,46.871-41.55v118.93H566.581Z" transform="translate(52.582 113.1)" fill="url(#linear-gradient-6)"/>
      <rect id="Rectangle_49" data-name="Rectangle 49" width="19.253" height="4.662" transform="translate(619.163 384.9)" fill="#7bd6e8"/>
      <rect id="Rectangle_50" data-name="Rectangle 50" width="12.065" height="4.662" transform="translate(667.724 384.9)" fill="#7bd6e8"/>
      <rect id="Rectangle_51" data-name="Rectangle 51" width="14.871" height="4.662" transform="translate(716.282 384.9)" fill="#7bd6e8"/>
      <rect id="Rectangle_52" data-name="Rectangle 52" width="22.919" height="4.662" transform="translate(764.842 384.9)" fill="#7bd6e8"/>
      <rect id="Rectangle_53" data-name="Rectangle 53" width="7.992" height="4.662" transform="translate(813.4 384.9)" fill="#7bd6e8"/>
      <rect id="Rectangle_54" data-name="Rectangle 54" width="64.932" height="8.213" transform="translate(739.978 300.679)" fill="#fff"/>
      <rect id="Rectangle_55" data-name="Rectangle 55" width="59.605" height="8.213" transform="translate(739.978 335.105)" fill="#fff"/>
      <rect id="Rectangle_56" data-name="Rectangle 56" width="51.571" height="8.215" transform="translate(739.978 317.891)" fill="#fff"/>
      <path id="Path_30" data-name="Path 30" d="M608.894,240.5a11.354,11.354,0,1,1-11.354-11.352A11.355,11.355,0,0,1,608.894,240.5Z" transform="translate(72.869 48.453)" fill="url(#linear-gradient-11)"/>
      <path id="Path_31" data-name="Path 31" d="M622.762,263.383v21.591a49.915,49.915,0,0,1-41.159,0V263.383a20.58,20.58,0,0,1,41.159,0Z" transform="translate(68.127 62.584)" fill="url(#linear-gradient-12)"/>
      <g id="Group_47" data-name="Group 47" transform="translate(619.163 251.055)">
        <path id="Path_32" data-name="Path 32" d="M617.727,318.394a50.73,50.73,0,0,1-21.139-4.558,51.145,51.145,0,1,1,42.276,0A50.714,50.714,0,0,1,617.727,318.394Zm0-99.59a48.454,48.454,0,1,0,48.444,48.444A48.5,48.5,0,0,0,617.727,218.8Z" transform="translate(-566.581 -216.102)" fill="url(#linear-gradient-13)"/>
      </g>
      <g id="Group_48" data-name="Group 48" transform="translate(0 298.953)">
        <path id="Path_33" data-name="Path 33" d="M319.13,316.145s14.022-31.763-2.244-29.132c0,0-5.537,4.578-11.22,13.9-4.3,7.063-13.252,25.756-12.921,32.078s4.829,11.037,9.684,21.19c0,0,10.094,18.846,10.52,21.117l10.67-5.539s-9.041-18.02-15.413-33.861Z" transform="translate(-230.784 -190.784)" fill="#6f5be0"/>
        <rect id="Rectangle_57" data-name="Rectangle 57" width="217.903" height="37.046" transform="matrix(-0.986, 0.168, -0.168, -0.986, 221.03, 184.017)" fill="url(#linear-gradient-14)"/>
        <rect id="Rectangle_58" data-name="Rectangle 58" width="11.639" height="28.119" transform="matrix(-0.986, 0.168, -0.168, -0.986, 231.754, 177.662)" fill="#2d3038"/>
        <path id="Path_34" data-name="Path 34" d="M347.236,449.287h2.645S349,439.3,351.448,439.2s8.522,8.129,12.146,9.4,22.234,2.348,22.33-1.076-7.148-4.8-9.4-5.779-13.224-11.655-15.183-12.929-5.3-10.127-5.3-10.127l-10.39-.462s-.586,8.275-1.215,12.656a38.745,38.745,0,0,0-.429,4.1C343.907,438.71,347.236,449.287,347.236,449.287Z" transform="translate(-177.735 -54.846)" fill="#eea886"/>
        <path id="Path_35" data-name="Path 35" d="M314.124,447.943h2.206v-9.3c1.833.155,8.007,5.994,9.917,7.685s4.529,1.614,12.575,2.126,8.8-4.306,7.529-5.944-5.388-2.356-7.529-3.38-10.593-10.552-12.846-12.809-3.624-8.707-3.624-8.707l-9.4.82a57.514,57.514,0,0,1-1.011,10.86v0l-.01.037c-.09.423-.191.836-.3,1.241C310.232,435.726,314.124,447.943,314.124,447.943Z" transform="translate(-211.549 -55.478)" fill="#eea886"/>
        <path id="Path_36" data-name="Path 36" d="M349.621,332.366s3.553,8.4,3.866,10.524,8.634,22.232,11.039,35.79c1.441,8.117,5.417,33.523,5.74,36.752.551,5.528,3.154,17.733,3.555,23.377.224,3.156,15.772,51.608,19.534,76.906,0,0-8.941,1.323-15.658-.452,0,0-13.649-26.145-21.227-63.228-4.566-22.334-8.6-34.243-12.137-43.442s-23.563-35.25-25.654-38.176-15.187-19.1-2.786-36.626S349.621,332.366,349.621,332.366Z" transform="translate(-212.277 -150.679)" fill="#e4e8eb"/>
        <path id="Path_37" data-name="Path 37" d="M311.452,408.878c1.135,7.545-.057,17.454-2.427,45.038s4.147,60.982,4.147,60.982c8.188,2.8,17.617,0,17.617,0-.216-1.939,0-67.233,0-73.05s1.671-12.422,2.1-19.1c.3-4.55,2.411-12.941,4.794-21.505.714-2.568,1.453-5.148,2.169-7.645v0c.4-1.4.8-2.775,1.182-4.108,3.357-11.635,7.868-56.569,7.868-56.569s-25.009-20.144-37.185-1.178-5.923,32.752-5.494,35.12S310.317,401.339,311.452,408.878Z" transform="translate(-218.882 -152.761)" fill="#e4e8eb"/>
        <path id="Path_38" data-name="Path 38" d="M312.88,345.6c.2.429,12.656,28.088,15.861,32.886.714-2.568,1.453-5.148,2.169-7.645v0S313.3,346.2,312.88,345.6Z" transform="translate(-209.94 -130.003)" fill="#bdc0c2"/>
        <path id="Path_39" data-name="Path 39" d="M314.124,442.908h2.206v-9.3c1.833.155,8.007,5.994,9.917,7.685s4.529,1.614,12.575,2.126,8.8-4.306,7.529-5.944-5.388-2.356-7.529-3.38c-8.607.46-19.109-11.639-24.149-11.615-2.678.014-2.653,1.5-2.735,1.778v0l-.01.037c-.09.423-.191.836-.3,1.241C310.232,430.691,314.124,442.908,314.124,442.908Z" transform="translate(-211.549 -50.443)" fill="#c6c9cc"/>
        <path id="Path_40" data-name="Path 40" d="M347.236,443.007h2.645s-.883-9.991,1.567-10.088,8.522,8.129,12.146,9.4,22.234,2.348,22.33-1.076-7.148-4.8-9.4-5.779c-7.675-.018-20.158-8.467-24.029-10.178a13.968,13.968,0,0,0-8.06-.684,38.745,38.745,0,0,0-.429,4.1C343.907,432.43,347.236,443.007,347.236,443.007Z" transform="translate(-177.735 -48.566)" fill="#c6c9cc"/>
        <path id="Path_41" data-name="Path 41" d="M327.908,280.815s-3.99,10.558-.887,18.718c0,0-14.632-.952-15.185-2.661s.588-17.525-1.424-22.2S327.908,280.815,327.908,280.815Z" transform="translate(-212.646 -204.609)" fill="#eea886"/>
        <path id="Path_42" data-name="Path 42" d="M337.987,285.177s8.646,3.075,12.555,3.929,12.08,4.727,11.417,19.3-3.1,27.217-3.992,33.482-.332,22.207,1.109,29.952a109.613,109.613,0,0,1-45.115,0s4.324-13.21,4.212-16.628-14.41-31.545-15.076-35.987S299.55,295.2,306.09,290.87s11.861-3.758,14.632-5.693S333.942,283.787,337.987,285.177Z" transform="translate(-221.311 -193.824)" fill="#6f5be0"/>
        <path id="Path_43" data-name="Path 43" d="M304.992,387.865c35.415,9.395,63.595.035,63.595.035a87.659,87.659,0,0,1-5.828-15.654l0,0a93.56,93.56,0,0,1-2.179-10.508v0a95.16,95.16,0,0,1,.873-34.066c-4.086-33.645-54.994-43.685-59.069-33.02s7.9,56.5,8.507,60.425S304.992,387.865,304.992,387.865Z" transform="translate(-221.678 -186.937)" fill="#6f5be0"/>
        <path id="Path_44" data-name="Path 44" d="M319.529,256.855c5.88-2.016,21.782-4.165,25.854,20.242s-4.8,24.824-13.912,24.13-23.369-17.169-24.462-22.177S302.744,262.614,319.529,256.855Z" transform="translate(-217.019 -223.009)" fill="#eea886"/>
        <path id="Path_45" data-name="Path 45" d="M342.906,267.219s-4.857,10.39-11.228,14.013c0,0-3.99,11.039-12.634,15.5,0,0-22.934-15.192-9.624-33.246S341.4,259.812,342.906,267.219Z" transform="translate(-217.818 -223.998)" fill="#0f324f"/>
        <path id="Path_46" data-name="Path 46" d="M321.454,266.9c-.517-1.27-3.954-3.335-5.494.149s3.994,9.62,5.51,9.289S323.412,271.72,321.454,266.9Z" transform="translate(-207.031 -213.271)" fill="#eea886"/>
        <path id="Path_47" data-name="Path 47" d="M317.49,261.623c-.5-.783-15.69-7.814-18.848,6.878s12.231,31.775,14.929,39.119-1.221,24.564-1.221,24.564,9.262-8.754,12.064-17.916C327.489,304.205,328.523,278.831,317.49,261.623Z" transform="translate(-225.113 -219.343)" fill="#0f324f"/>
        <path id="Path_48" data-name="Path 48" d="M307.312,260.2s4.649,3.679,5.25,9.482c0,0,.871-4.527-1-7.293S307.312,260.2,307.312,260.2Z" transform="translate(-215.702 -218.421)" fill="#e54242"/>
        <path id="Path_49" data-name="Path 49" d="M338.222,355.824a93.432,93.432,0,0,1-2.179-10.505v0s-2.336-4.965-3.123-7.337-6.65-31.537-6.65-31.537S320.066,333.834,338.222,355.824Z" transform="translate(-197.143 -170.519)" fill="#1d3b54"/>
        <path id="Path_50" data-name="Path 50" d="M348.044,331.543s4.568,4.533,6.043,4.991,4.324-2.059,14.809-2.837c.922-.069,2.541.761,2.159,1.976s-4.947,4.525-6.9,5.032-11.167,4.167-15.66,2.369-7.547-7.51-7.547-7.51Z" transform="translate(-180.895 -144.545)" fill="#eea886"/>
        <path id="Path_51" data-name="Path 51" d="M330.518,286.861s12.127,4.808,12.846,21.662,1.378,25.654,2.035,28.257,1.917,13.057,4.969,19.349c2.961,6.1,22.395,25.422,22.395,25.422l-9.4,8.843s-27.091-27.182-28.737-32.153-8.418-39.556-8.957-45.388C325.227,308.153,319.027,287.211,330.518,286.861Z" transform="translate(-198.843 -190.781)" fill="#6f5be0"/>
        <circle id="Ellipse_1" data-name="Ellipse 1" cx="116.244" cy="116.244" r="116.244" transform="translate(242.244 18.578)" fill="#b8b8b8" opacity="0.1"/>
        <path id="Path_52" data-name="Path 52" d="M401.2,279.49s147.269-18.252,176.614,137.174l0,0A113.494,113.494,0,0,0,401.2,279.49Z" transform="translate(-118.549 -228.977)" fill="#869ac2" opacity="0.3"/>
        <path id="Path_53" data-name="Path 53" d="M507.041,239.642A134.827,134.827,0,1,0,641.863,374.464,134.827,134.827,0,0,0,507.041,239.642Zm0,247.7A112.874,112.874,0,1,1,619.914,374.464,112.87,112.87,0,0,1,507.041,487.341Z" transform="translate(-148.544 -239.642)" fill="#3f444f"/>
      </g>
      <g id="Group_73" data-name="Group 73" transform="translate(740.413 329.714)">
        <g id="Group_49" data-name="Group 49" transform="translate(0 42.272)">
          <path id="Path_54" data-name="Path 54" d="M693.373,324.24l-33.53,18.432-33.673-52.99L666.9,275.534Z" transform="translate(-626.17 -275.534)" fill="#292c47"/>
        </g>
        <g id="Group_50" data-name="Group 50" transform="translate(2.23 43.838)">
          <path id="Path_55" data-name="Path 55" d="M690.113,321.851l-31.358,17.236-31.489-49.554,38.086-13.23Z" transform="translate(-627.266 -276.304)" fill="#e2d2ca"/>
        </g>
        <g id="Group_51" data-name="Group 51" transform="translate(36.803 69.104)">
          <path id="Path_56" data-name="Path 56" d="M684.017,299.735s-5.838-2.792-8.4-4.251-9.15-3.461-9.684-3.937S646.4,289.9,645.248,288.9s-2.273,2.332,2.651,3.41,11.777,3.716,12.152,5.642-5.058,2.381-5.608,3.966.155,1.229.934,1.569,6.46-2.806,8.961-1.915,6.32-.344,8.237.313,11.23,3.791,11.23,3.791Z" transform="translate(-644.257 -288.721)" fill="#eea886"/>
        </g>
        <g id="Group_52" data-name="Group 52" transform="translate(63.023 74.539)">
          <path id="Path_57" data-name="Path 57" d="M660.148,301.092l-3.005-1.111s3.748-8.8,5.384-8.585a40.725,40.725,0,0,1,4.238.867Z" transform="translate(-657.143 -291.392)" fill="#ead8cf"/>
        </g>
        <g id="Group_53" data-name="Group 53" transform="translate(65.343 73.949)">
          <path id="Path_58" data-name="Path 58" d="M658.283,302.912c.385-.287,6.389-11.81,6.389-11.81l12.831,1.746-6.935,13.645Z" transform="translate(-658.283 -291.102)" fill="#da9b5b"/>
        </g>
        <g id="Group_54" data-name="Group 54" transform="translate(6.362 69.16)">
          <path id="Path_59" data-name="Path 59" d="M654.972,322.35s-4.9-4.413-7.274-6.261-6.827-7.276-7.482-7.592-9.159-17.766-10.546-18.466,1.313-3.048,4.247,1.172,8.088,9.653,10.048,9.256.275-5.693,1.553-6.831,1.221-.334,1.845.269-.13,7.183,1.685,9.191,2.136,6.09,3.5,7.641,7.944,9.106,7.944,9.106Z" transform="translate(-629.296 -288.748)" fill="#eea886"/>
        </g>
        <g id="Group_55" data-name="Group 55" transform="translate(137.63 337.673)">
          <path id="Path_60" data-name="Path 60" d="M693.809,421.661s1.06,7.36,1.19,8.467,11.8-.651,11.8-.651l.944-8.764S695.266,420.621,693.809,421.661Z" transform="translate(-693.809 -420.711)" fill="#424773"/>
        </g>
        <g id="Group_56" data-name="Group 56" transform="translate(118.454 345.656)">
          <path id="Path_61" data-name="Path 61" d="M704.629,425.133s-3.7,4.436-7.27,6.369-9.193,2.7-11.307,4.7c-1.526,1.445-5.557,7.665,9.289,7.539s22.006.879,23.6-1.506-2.3-17.6-2.3-17.6S713.12,425.9,704.629,425.133Z" transform="translate(-684.385 -424.634)" fill="#292c47"/>
        </g>
        <g id="Group_57" data-name="Group 57" transform="translate(54.042 337.673)">
          <path id="Path_62" data-name="Path 62" d="M652.729,421.661s1.062,7.36,1.194,8.467,11.8-.651,11.8-.651l.944-8.764S654.188,420.621,652.729,421.661Z" transform="translate(-652.729 -420.711)" fill="#424773"/>
        </g>
        <g id="Group_58" data-name="Group 58" transform="translate(28.011 345.656)">
          <path id="Path_63" data-name="Path 63" d="M667.037,425.133s-3.7,4.436-7.27,6.369-16.73,3.522-18.844,5.524c-1.526,1.445-4.063,7.26,16.825,6.715,14.842-.387,22.006.879,23.6-1.506s-2.3-17.6-2.3-17.6S675.73,425.985,667.037,425.133Z" transform="translate(-639.936 -424.634)" fill="#292c47"/>
        </g>
        <g id="Group_59" data-name="Group 59" transform="translate(101.204 149.463)">
          <path id="Path_64" data-name="Path 64" d="M702.67,328.214s10.963,17.414,10.145,33.157,3.976,32.929,5.622,49.374c1.835,18.333,9.346,61.735,9.62,71.543s-1.166,41.123-1.166,41.123l-15.039.344s-12.63-75.879-15.9-83.621S676.461,377.2,675.915,371,702.67,328.214,702.67,328.214Z" transform="translate(-675.907 -328.214)" fill="#292c47"/>
        </g>
        <g id="Group_60" data-name="Group 60" transform="translate(52.009 146.462)">
          <path id="Path_65" data-name="Path 65" d="M669.988,332.1s-8.261,43.147-9.352,52.782-1.817,46.627-2.362,52.65-3.634,78.8-6.544,87.75h19.229s14.756-52.91,14.756-77.942,11.4-54.422,18.76-70.938,24.208-16.907,28.731-47.553C733.206,328.847,676.113,322.381,669.988,332.1Z" transform="translate(-651.73 -326.739)" fill="#292c47"/>
        </g>
        <g id="Group_61" data-name="Group 61" transform="translate(83.474 1.697)">
          <path id="Path_66" data-name="Path 66" d="M693.4,256.942s-14.711-5.5-21.5,5.7-6.131,33.621,1.286,36.376,18.557,1.317,22.354-5.689,7.225-17.141,7.061-23.911S697.262,258.9,693.4,256.942Z" transform="translate(-667.194 -255.593)" fill="#eea886"/>
        </g>
        <g id="Group_62" data-name="Group 62" transform="translate(90.627 31.675)">
          <path id="Path_67" data-name="Path 67" d="M671.147,284.29s.612,3.972-.4,5.927,19.062,2.01,19.062,2.01a132.254,132.254,0,0,1,4.719-19.638C697.617,263.6,671.147,284.29,671.147,284.29Z" transform="translate(-670.709 -270.326)" fill="#eea886"/>
        </g>
        <g id="Group_63" data-name="Group 63" transform="translate(84.107)">
          <path id="Path_68" data-name="Path 68" d="M697.842,288.7s-1.386,2.287-7.04,1.4-12.554-8.412-14.915-9.238-2.385-2.214-2.385-2.214l-1.477,2.159-2.509.161s2.287-6.731-1.162-9.476,3.581-21.786,21.717-15.446c0,0,13.93,3.84,13.423,11.763S700.959,284.753,697.842,288.7Z" transform="translate(-667.505 -254.76)" fill="#3a3f47"/>
        </g>
        <g id="Group_64" data-name="Group 64" transform="translate(89.473 45.832)">
          <path id="Path_69" data-name="Path 69" d="M670.142,282.784s.063-3.74,1.758-4.1,18.706-2,20.787-1.178v4.357S688.679,284.333,670.142,282.784Z" transform="translate(-670.142 -277.284)" fill="#e2d2ca"/>
        </g>
        <g id="Group_65" data-name="Group 65" transform="translate(90.034 18.119)">
          <path id="Path_70" data-name="Path 70" d="M670.864,266.551c.315-1.327,3.7-5.126,4.989-1.058s-1.955,9.533-3.768,9.067S670.058,269.921,670.864,266.551Z" transform="translate(-670.418 -263.664)" fill="#eea886"/>
        </g>
        <g id="Group_66" data-name="Group 66" transform="translate(21.89 95.502)">
          <path id="Path_71" data-name="Path 71" d="M637,301.7a.045.045,0,0,1,.029,0C636.91,301.748,636.892,301.752,637,301.7Z" transform="translate(-636.928 -301.695)" fill="#323657"/>
        </g>
        <g id="Group_67" data-name="Group 67" transform="translate(21.988 50.412)">
          <path id="Path_72" data-name="Path 72" d="M755.324,420.073a155.824,155.824,0,0,1-24.409,4.352c-15.389,1.695-53.832-.615-54.074-2.43s8.269-67.687,7.785-71.081-.745-15.479-.745-15.479c-.189,3.313-3.563,16.84-7.636,24.214-1.471,2.666-6.408,11.014-8.786,9.118-11.517-9.2-29.352-43.847-30.483-44.142.95-.411,8.452-3.866,9.5-4.216.924-.307,9.232,8.489,14.266,13.942,2.244,2.432,3.838,4.2,3.838,4.2,1.455-3.27,6.749-23.874,8.4-31.006,3.711-16.083,3.14-16.752,3.14-16.752,11.256-3.406,28.342-10.335,28.342-10.335l22.545-.92s20.692,4.554,28.837,8.237c.773.348.777,18.457,2.9,23.207l-6.755,14.254s-3.9,28.232-4.713,40.789C746.9,371.785,755.324,420.073,755.324,420.073Z" transform="translate(-636.976 -279.535)" fill="#323657"/>
        </g>
        <g id="Group_68" data-name="Group 68" transform="translate(119.592 58.649)">
          <path id="Path_73" data-name="Path 73" d="M710.043,330.3c-.59,1.9-3.262,3.506-5,4.206a6.447,6.447,0,0,1-3.61.364l-.883-.163h0l-15.45-2.865s-3.382-38.933,21.1-48.261C706.856,283.793,715.449,312.871,710.043,330.3Z" transform="translate(-684.944 -283.583)" fill="#323657"/>
        </g>
        <g id="Group_69" data-name="Group 69" transform="translate(135.201 89.881)">
          <path id="Path_74" data-name="Path 74" d="M697.108,318.624h0a6.447,6.447,0,0,1-3.61.364l-.883-.163h0l1.524-19.894Z" transform="translate(-692.615 -298.932)" fill="#252840"/>
        </g>
        <g id="Group_70" data-name="Group 70" transform="translate(45.755 105.229)">
          <path id="Path_75" data-name="Path 75" d="M652.5,310.671l-1.888,8s-2.049-8.027-1.949-12.194C650.9,308.907,652.5,310.671,652.5,310.671Z" transform="translate(-648.656 -306.475)" fill="#252840"/>
        </g>
        <g id="Group_71" data-name="Group 71" transform="translate(113.868 4.331)">
          <path id="Path_76" data-name="Path 76" d="M682.131,256.921s19.284-2.224.33,29.986Z" transform="translate(-682.131 -256.888)" fill="#3a3f47"/>
        </g>
        <g id="Group_72" data-name="Group 72" transform="translate(13.54 44.881)">
          <path id="Path_77" data-name="Path 77" d="M634.784,285.512l-1.959-3.368,15.44-5.327,1.959,3.35Z" transform="translate(-632.824 -276.816)" fill="#292c47"/>
        </g>
      </g>
    </g>
  </g>
</svg>
