<svg xmlns="http://www.w3.org/2000/svg" xmlns:xlink="http://www.w3.org/1999/xlink" width="1170" height="277.845" viewBox="0 0 1170 277.845">
  <defs>
    <clipPath id="clip-path">
      <rect id="Rectangle_59" data-name="Rectangle 59" width="115.473" height="63.2" transform="translate(-67.5 4507)" fill="#cc2b5e"/>
    </clipPath>
    <linearGradient id="linear-gradient" y1="0.5" x2="1" y2="0.5" gradientUnits="objectBoundingBox">
      <stop offset="0" stop-color="#65ced6"/>
      <stop offset="1" stop-color="#5059ab"/>
    </linearGradient>
    <linearGradient id="linear-gradient-2" y1="0.5" x2="1" y2="0.5" gradientUnits="objectBoundingBox">
      <stop offset="0" stop-color="#753a88"/>
      <stop offset="1" stop-color="#14a0c0"/>
    </linearGradient>
    <linearGradient id="linear-gradient-3" y1="0.5" x2="1" y2="0.5" gradientUnits="objectBoundingBox">
      <stop offset="0" stop-color="#cc2b5e"/>
      <stop offset="1" stop-color="#753a88"/>
    </linearGradient>
  </defs>
  <g id="Group_117" data-name="Group 117" transform="translate(-375 -6274)">
    <g id="Mask_Group_1" data-name="Mask Group 1" transform="translate(537 1876)" clip-path="url(#clip-path)">
      <g id="testing" transform="translate(-41.363 4507)">
        <path id="Path_81" data-name="Path 81" d="M77.4,45.8H68.226V30.51h1.493a2.584,2.584,0,0,0,2.15-4.017l-5.288-7.932a2.923,2.923,0,0,0-4.865,0l-5.288,7.932a2.586,2.586,0,0,0,2.151,4.018h1.493V45.8H50.9a3.024,3.024,0,0,0-1.019.188V20.316a3.062,3.062,0,0,0-3.058-3.058h-26.5a3.062,3.062,0,0,0-3.058,3.058V48.858a3.062,3.062,0,0,0,3.058,3.058H29.49v15.29H28a2.584,2.584,0,0,0-2.15,4.017l5.288,7.932a2.923,2.923,0,0,0,4.865,0l5.288-7.932a2.586,2.586,0,0,0-2.151-4.018H37.645V51.916h9.174a3.024,3.024,0,0,0,1.019-.188V77.4A3.062,3.062,0,0,0,50.9,80.458H77.4A3.062,3.062,0,0,0,80.458,77.4V48.858A3.062,3.062,0,0,0,77.4,45.8ZM58.578,28.471a.545.545,0,0,1-.454-.848l5.288-7.932a.918.918,0,0,1,1.473,0l5.288,7.932a.54.54,0,0,1,.092.3.547.547,0,0,1-.546.545H66.187V45.8H62.11V28.471ZM50.9,47.839H77.4a1.02,1.02,0,0,1,1.019,1.019v5.1H49.878v-5.1A1.02,1.02,0,0,1,50.9,47.839ZM20.316,19.3h26.5a1.02,1.02,0,0,1,1.019,1.019v5.1H19.3v-5.1A1.02,1.02,0,0,1,20.316,19.3ZM39.139,69.245a.545.545,0,0,1,.454.848L34.3,78.025a.918.918,0,0,1-1.473,0l-5.288-7.932a.54.54,0,0,1-.092-.3A.548.548,0,0,1,28,69.245h3.532V51.916h4.077V69.245Zm7.681-19.368h-26.5A1.02,1.02,0,0,1,19.3,48.858V27.452H47.839V48.858A1.02,1.02,0,0,1,46.819,49.878ZM77.4,78.42H50.9A1.02,1.02,0,0,1,49.878,77.4V55.994H78.42V77.4A1.02,1.02,0,0,1,77.4,78.42Z" transform="translate(-17.258 -17.258)" fill="#cc2b5e"/>
        <path id="Path_82" data-name="Path 82" d="M604.032,569.516h2.039v2.039h-2.039Z" transform="translate(-569.374 -536.897)" fill="#cc2b5e"/>
        <path id="Path_83" data-name="Path 83" d="M673.065,569.516H675.1v2.039h-2.039Z" transform="translate(-634.329 -536.897)" fill="#cc2b5e"/>
        <path id="Path_84" data-name="Path 84" d="M742.1,569.516h2.039v2.039H742.1Z" transform="translate(-699.284 -536.897)" fill="#cc2b5e"/>
        <path id="Path_85" data-name="Path 85" d="M224.355,86.29h2.039v2.039h-2.039Z" transform="translate(-212.123 -82.213)" fill="#cc2b5e"/>
        <path id="Path_86" data-name="Path 86" d="M86.29,86.29h2.039v2.039H86.29Z" transform="translate(-82.213 -82.213)" fill="#cc2b5e"/>
        <path id="Path_87" data-name="Path 87" d="M155.323,86.29h2.039v2.039h-2.039Z" transform="translate(-147.168 -82.213)" fill="#cc2b5e"/>
        <path id="Path_88" data-name="Path 88" d="M732.3,748.442a4.076,4.076,0,0,0-3.387-6.346h-4.077v14.271h6.116a4.077,4.077,0,0,0,1.349-7.925Zm-5.426-4.307h2.039a2.039,2.039,0,0,1,0,4.077h-2.039Zm4.077,10.194h-4.077v-4.077h4.077a2.039,2.039,0,0,1,0,4.077Z" transform="translate(-683.045 -699.284)" fill="#cc2b5e"/>
        <path id="Path_89" data-name="Path 89" d="M195.955,258.871a6.122,6.122,0,0,0-6.116,6.116v8.155h2.039v-4.077h8.155v4.077h2.039v-8.155A6.122,6.122,0,0,0,195.955,258.871Zm-4.077,8.155v-2.039a4.077,4.077,0,1,1,8.155,0v2.039Z" transform="translate(-179.645 -244.6)" fill="#cc2b5e"/>
      </g>
    </g>
    <g id="Group_79" data-name="Group 79" transform="translate(301.394 6051.034)">
      <g id="Group_76" data-name="Group 76" transform="translate(667.22 222.973)">
        <g id="Group_75" data-name="Group 75">
          <path id="Path_78" data-name="Path 78" d="M595.31,462.043a15.5,15.5,0,0,1-13.422,7.749H475.19a15.5,15.5,0,0,1-13.422-7.749l-37.7-65.308a15.5,15.5,0,0,0-26.866.035l-.007.013a15.5,15.5,0,0,0,.02,15.464l46.646,80.8a15.507,15.507,0,0,0,13.424,7.749H599.8a15.5,15.5,0,0,0,13.422-7.749c87.754-151.974,64.662-112.1,133.533-231.328a15.5,15.5,0,0,1,13.42-7.747h106.7a15.5,15.5,0,0,1,13.422,7.749l53.357,92.41a15.5,15.5,0,0,1,0,15.5l-53.357,92.41a15.5,15.5,0,0,1-13.422,7.747h-106.7a15.5,15.5,0,0,1-13.42-7.749l-37.589-65.112a15.5,15.5,0,0,0-26.864.035l-.008.011a15.5,15.5,0,0,0,.02,15.464l46.532,80.609a15.5,15.5,0,0,0,13.422,7.75H884.779a15.5,15.5,0,0,0,13.42-7.749l71.249-123.419a15.5,15.5,0,0,0,0-15.5L898.2,230.719a15.491,15.491,0,0,0-13.42-7.749H742.266a15.494,15.494,0,0,0-13.422,7.749C420.143,765.462,767.482,163.812,595.31,462.043Z" transform="translate(-395.138 -222.97)" fill="url(#linear-gradient)"/>
        </g>
      </g>
      <g id="Group_77" data-name="Group 77" transform="translate(383.223 222.966)">
        <path id="Path_79" data-name="Path 79" d="M459.36,493.057a15.514,15.514,0,0,1-13.422,7.754H303.416A15.547,15.547,0,0,1,290,493.057l-46.613-80.766a15.509,15.509,0,0,1,0-15.492v-.015a15.5,15.5,0,0,1,26.844,0l37.674,65.26a15.517,15.517,0,0,0,13.422,7.754H428.034a15.517,15.517,0,0,0,13.422-7.754c54.234-94.083,75.058-130.113,133.475-231.326a15.508,15.508,0,0,1,13.42-7.752h142.49a15.479,15.479,0,0,1,13.422,7.752l47,81.412a15.5,15.5,0,0,1-5.921,21.322h0a15.506,15.506,0,0,1-20.936-5.817l-38.037-65.9a15.479,15.479,0,0,0-13.422-7.752H606.257a15.479,15.479,0,0,0-13.422,7.752S512.265,401.428,459.36,493.057Z" transform="translate(-241.31 -222.966)" fill="url(#linear-gradient-2)"/>
      </g>
      <g id="Group_78" data-name="Group 78" transform="translate(73.606 222.973)">
        <path id="Path_80" data-name="Path 80" d="M449.819,261.727a15.5,15.5,0,0,1,13.422-7.75h106.7a15.5,15.5,0,0,1,13.422,7.75l37.7,65.306A15.5,15.5,0,0,0,647.93,327l.006-.011a15.5,15.5,0,0,0-.018-15.464l-46.648-80.8a15.5,15.5,0,0,0-13.422-7.749H445.335a15.5,15.5,0,0,0-13.422,7.747c-.018.033-101.9,176.558-133.534,231.328a15.489,15.489,0,0,1-13.42,7.747h-106.7a15.5,15.5,0,0,1-13.422-7.747l-53.357-92.41a15.5,15.5,0,0,1,0-15.5l53.357-92.41a15.5,15.5,0,0,1,13.422-7.749h106.7a15.5,15.5,0,0,1,13.422,7.75l37.587,65.11a15.5,15.5,0,0,0,26.866-.033l.007-.013a15.5,15.5,0,0,0-.02-15.462l-46.532-80.611a15.5,15.5,0,0,0-13.424-7.749H160.352a15.494,15.494,0,0,0-13.422,7.749L75.683,354.136a15.492,15.492,0,0,0,0,15.5L146.93,493.052a15.5,15.5,0,0,0,13.422,7.749H302.863a15.507,15.507,0,0,0,13.424-7.749C330.835,467.857,342.984,446.81,449.819,261.727Z" transform="translate(-73.606 -222.97)" fill="url(#linear-gradient-3)"/>
      </g>
    </g>
    <g id="Page-1" transform="translate(782 6383)">
      <g id="_002---API" data-name="002---API" transform="translate(0 0)">
        <path id="Shape" d="M58.029,40.218H14.938a14.938,14.938,0,0,1,0-29.876c.1,0,.195,0,.291,0a17.235,17.235,0,0,1,31.595,0,13.234,13.234,0,0,1,11.885,8.062,10.916,10.916,0,0,1-.679,21.812ZM14.938,12.64a12.64,12.64,0,0,0,0,25.28H58.029a8.618,8.618,0,0,0,0-17.236h-.115a1.149,1.149,0,0,1-1.083-.766A10.9,10.9,0,0,0,46.471,12.64c-.112,0-.224,0-.336.008a1.159,1.159,0,0,1-1.154-.737,14.936,14.936,0,0,0-27.923.031,1.147,1.147,0,0,1-1.19.737,9.252,9.252,0,0,0-.931-.04Z" transform="translate(0 0)" fill="#cc2b5e"/>
        <path id="Shape-2" data-name="Shape" d="M7.184,30.121A1.145,1.145,0,0,1,6.29,29.7,10.312,10.312,0,0,1,9.932,13.88a1.149,1.149,0,1,1,.982,2.078A8.078,8.078,0,0,0,6.3,23.227a7.9,7.9,0,0,0,1.778,5.022,1.149,1.149,0,0,1-.892,1.872Z" transform="translate(0.596 2.053)" fill="#cc2b5e"/>
        <path id="Shape-3" data-name="Shape" d="M17.149,31.088a1.15,1.15,0,0,1-1.09-1.513l4.6-13.789a1.149,1.149,0,1,1,2.18.727L18.239,30.3a1.149,1.149,0,0,1-1.09.786Z" transform="translate(2.385 2.236)" fill="#cc2b5e"/>
        <path id="Shape-4" data-name="Shape" d="M25.745,31.088a1.149,1.149,0,0,1-1.09-.786l-4.6-13.789a1.149,1.149,0,1,1,2.18-.727l4.6,13.789a1.15,1.15,0,0,1-1.09,1.513Z" transform="translate(2.982 2.236)" fill="#cc2b5e"/>
        <path id="Shape-5" data-name="Shape" d="M24.174,24.3H18.819a1.149,1.149,0,1,1,0-2.3h5.355a1.149,1.149,0,0,1,0,2.3Z" transform="translate(2.634 3.28)" fill="#cc2b5e"/>
        <path id="Shape-6" data-name="Shape" d="M28.149,31.087A1.149,1.149,0,0,1,27,29.938V16.149a1.149,1.149,0,1,1,2.3,0V29.938A1.149,1.149,0,0,1,28.149,31.087Z" transform="translate(4.025 2.236)" fill="#cc2b5e"/>
        <path id="Shape-7" data-name="Shape" d="M32.745,24.193h-4.6A1.149,1.149,0,0,1,27,23.044V16.149A1.149,1.149,0,0,1,28.149,15h4.6a4.6,4.6,0,1,1,0,9.193Zm-3.447-2.3h3.447a2.3,2.3,0,1,0,0-4.6H29.3Z" transform="translate(4.025 2.236)" fill="#cc2b5e"/>
        <path id="Shape-8" data-name="Shape" d="M40.149,31.087A1.149,1.149,0,0,1,39,29.938V16.149a1.149,1.149,0,0,1,2.3,0V29.938A1.149,1.149,0,0,1,40.149,31.087Z" transform="translate(5.814 2.236)" fill="#cc2b5e"/>
        <path id="Shape-9" data-name="Shape" d="M44.044,17.3H37.149a1.149,1.149,0,0,1,0-2.3h6.894a1.149,1.149,0,0,1,0,2.3Z" transform="translate(5.367 2.236)" fill="#cc2b5e"/>
        <path id="Shape-10" data-name="Shape" d="M44.044,29.3H37.149a1.149,1.149,0,0,1,0-2.3h6.894a1.149,1.149,0,0,1,0,2.3Z" transform="translate(5.367 4.025)" fill="#cc2b5e"/>
        <path id="Shape-11" data-name="Shape" d="M26.9,58.34a2.117,2.117,0,0,1-.842-.176l-7.189-2.98a2.141,2.141,0,0,1-1.166-1.172,2.08,2.08,0,0,1,.026-1.629l1.712-4.139a23.419,23.419,0,0,1-4.469-4.471L10.8,45.5a2.1,2.1,0,0,1-1.625,0,2.124,2.124,0,0,1-1.149-1.143L5.047,37.129a2.115,2.115,0,0,1,1.115-2.764l4.072-1.678a1.149,1.149,0,0,1,.875,2.126l-3.874,1.6,2.846,6.9,4.851-2a1.15,1.15,0,0,1,1.379.4,21.156,21.156,0,0,0,5.2,5.2,1.148,1.148,0,0,1,.4,1.381l-2,4.84,6.9,2.859,2-4.843a1.149,1.149,0,0,1,1.262-.692,20.762,20.762,0,0,0,7.34-.01,1.152,1.152,0,0,1,1.265.69l2.014,4.851,6.886-2.855-2-4.852a1.149,1.149,0,0,1,.407-1.382,20.925,20.925,0,0,0,5.2-5.187,1.147,1.147,0,0,1,1.379-.4l4.849,2.006,2.861-6.9L57.5,35.26a1.148,1.148,0,0,1,.4-2.224,1.2,1.2,0,0,1,.453.088l2.953,1.23a2.1,2.1,0,0,1,1.154,1.159,2.135,2.135,0,0,1,0,1.624l-2.989,7.209a2.12,2.12,0,0,1-2.8,1.143l-4.148-1.717a23.172,23.172,0,0,1-4.467,4.462l1.722,4.173a2.058,2.058,0,0,1,.015,1.6,2.14,2.14,0,0,1-1.17,1.174l-7.2,2.985a2.117,2.117,0,0,1-2.779-1.156L36.9,52.849a23.092,23.092,0,0,1-6.315.009l-1.722,4.163A2.126,2.126,0,0,1,26.9,58.34Zm-.162-2.2h0Zm.214-.1h0ZM47.651,53.3l0,.008Zm-27.8-.02,0,0Zm27.89-.222h0Zm-27.99,0h0ZM57.341,43.47h0Zm-47.423-.1h0Zm47.637,0h0Zm2.871-6.9h0ZM7.169,36.246v0Z" transform="translate(0.728 4.86)" fill="#cc2b5e"/>
        <path id="Shape-12" data-name="Shape" d="M32.1,45.641A17.325,17.325,0,0,1,16.006,34.56a1.149,1.149,0,1,1,2.147-.82,14.927,14.927,0,0,0,27.89,0,1.149,1.149,0,1,1,2.147.82A17.325,17.325,0,0,1,32.1,45.641Z" transform="translate(2.374 4.918)" fill="#cc2b5e"/>
        <path id="Shape-13" data-name="Shape" d="M19.149,13.193a1.15,1.15,0,0,1-1.09-1.513C20.59,4.088,26.924,4,27.193,4A1.149,1.149,0,1,1,27.2,6.3c-.223,0-4.972.146-6.959,6.109a1.149,1.149,0,0,1-1.09.786Z" transform="translate(2.684 0.596)" fill="#cc2b5e"/>
      </g>
    </g>
    <g id="tax" transform="translate(1072.5 6371.846)">
      <path id="Path_90" data-name="Path 90" d="M39.635,21.523a3.836,3.836,0,0,0,.5-.97,3.752,3.752,0,0,1,1.479.591,5.658,5.658,0,0,0,3.023.968,5.862,5.862,0,0,0,1.016-.093,5.4,5.4,0,0,0,3.5-2.2,2.943,2.943,0,0,1,4.282-.755,5.4,5.4,0,0,0,4.042.873L57.023,17.4a2.941,2.941,0,0,1-2.307-.567,5.473,5.473,0,0,0-7.539,1.329A2.945,2.945,0,0,1,45.2,19.486a2.548,2.548,0,0,1-1.123-.027,5.113,5.113,0,0,0,2.058-1.092,5.4,5.4,0,0,0,1.929-3.657,2.939,2.939,0,0,1,1.05-2.132,2.9,2.9,0,0,1,2.281-.664,5.288,5.288,0,0,0,3.936-1.265L53.676,8.681a3.071,3.071,0,0,1-2.282.662,5.474,5.474,0,0,0-5.865,4.921A2.941,2.941,0,0,1,42.2,17.058a5.715,5.715,0,0,0-2.367.316,3.857,3.857,0,0,0-1.493-1.459L44.091,4.431A1.286,1.286,0,0,0,42.934,2.57a3.318,3.318,0,0,1-2.407-1,5.928,5.928,0,0,0-8.034,0,3.4,3.4,0,0,1-2.412,1,3.4,3.4,0,0,1-2.412-1,5.937,5.937,0,0,0-8.039,0,3.329,3.329,0,0,1-2.414,1,1.286,1.286,0,0,0-1.151,1.861l5.742,11.485a3.816,3.816,0,0,0-1.293,5.607A27.025,27.025,0,0,0,.5,47.576V70.721a6.437,6.437,0,0,0,6.429,6.429H53.221a6.437,6.437,0,0,0,6.429-6.429V47.576A27.026,27.026,0,0,0,39.635,21.523ZM21.236,3.575a3.4,3.4,0,0,1,4.827,0,5.935,5.935,0,0,0,8.037,0,3.392,3.392,0,0,1,4.82,0,6.833,6.833,0,0,0,2.087,1.261l-5.3,10.593H24.44L19.145,4.837a6.869,6.869,0,0,0,2.091-1.263Zm2.41,17a1.286,1.286,0,0,1,0-2.572H36.5a1.286,1.286,0,0,1,0,2.572ZM57.078,70.721a3.858,3.858,0,0,1-3.858,3.858H6.929a3.857,3.857,0,0,1-3.858-3.858V47.576A24.458,24.458,0,0,1,27.5,23.144h5.143A24.459,24.459,0,0,1,57.078,47.576Zm0,0" fill="#339caa"/>
      <path id="Path_91" data-name="Path 91" d="M130.84,273.766l15.431-15.43,1.818,1.818-15.43,15.431Zm0,0" transform="translate(-109.39 -216.813)" fill="#339caa"/>
      <path id="Path_92" data-name="Path 92" d="M196.358,320a3.858,3.858,0,1,0,3.858,3.858A3.857,3.857,0,0,0,196.358,320Zm0,5.143a1.286,1.286,0,1,1,1.286-1.286A1.286,1.286,0,0,1,196.358,325.139Zm0,0" transform="translate(-161.139 -268.563)" fill="#339caa"/>
      <path id="Path_93" data-name="Path 93" d="M132.358,263.711a3.858,3.858,0,1,0-3.858-3.858A3.858,3.858,0,0,0,132.358,263.711Zm0-5.143a1.286,1.286,0,1,1-1.286,1.286A1.286,1.286,0,0,1,132.358,258.568Zm0,0" transform="translate(-107.426 -214.85)" fill="#339caa"/>
      <path id="Path_94" data-name="Path 94" d="M90.5,200a18,18,0,1,0,18,18A18,18,0,0,0,90.5,200Zm0,33.433A15.43,15.43,0,1,1,105.933,218,15.43,15.43,0,0,1,90.5,233.429Zm0,0" transform="translate(-60.427 -167.851)" fill="#339caa"/>
    </g>
    <g id="ui" transform="translate(1329 6279)">
      <path id="Path_95" data-name="Path 95" d="M103.429,104H16.371A8.38,8.38,0,0,0,8,112.371v46.877a8.38,8.38,0,0,0,8.371,8.371h87.058a8.38,8.38,0,0,0,8.371-8.371V112.371A8.38,8.38,0,0,0,103.429,104Zm-92.081,8.371a5.028,5.028,0,0,1,5.023-5.023h87.058a5.028,5.028,0,0,1,5.023,5.023v1.674h-97.1Zm97.1,46.877a5.028,5.028,0,0,1-5.023,5.023H16.371a5.028,5.028,0,0,1-5.023-5.023V117.394h97.1Z" fill="#339caa"/>
      <path id="Path_96" data-name="Path 96" d="M45.023,128H41.674a1.674,1.674,0,0,0,0,3.348h3.348a1.674,1.674,0,0,0,0-3.348Z" transform="translate(-25.303 -18.977)" fill="#339caa"/>
      <path id="Path_97" data-name="Path 97" d="M85.023,128H81.674a1.674,1.674,0,0,0,0,3.348h3.348a1.674,1.674,0,0,0,0-3.348Z" transform="translate(-56.932 -18.977)" fill="#339caa"/>
      <path id="Path_98" data-name="Path 98" d="M125.023,128h-3.348a1.674,1.674,0,0,0,0,3.348h3.348a1.674,1.674,0,0,0,0-3.348Z" transform="translate(-88.561 -18.977)" fill="#339caa"/>
      <path id="Path_99" data-name="Path 99" d="M361.674,227.348h13.394a1.674,1.674,0,0,0,0-3.348H361.674a1.674,1.674,0,0,0,0,3.348Z" transform="translate(-278.335 -94.887)" fill="#339caa"/>
      <path id="Path_100" data-name="Path 100" d="M329.674,259.348h20.09a1.674,1.674,0,0,0,0-3.348h-20.09a1.674,1.674,0,0,0,0,3.348Z" transform="translate(-253.032 -120.19)" fill="#339caa"/>
      <path id="Path_101" data-name="Path 101" d="M329.674,291.348h20.09a1.674,1.674,0,0,0,0-3.348h-20.09a1.674,1.674,0,0,0,0,3.348Z" transform="translate(-253.032 -145.494)" fill="#339caa"/>
      <path id="Path_102" data-name="Path 102" d="M329.674,323.348h10.045a1.674,1.674,0,0,0,0-3.348H329.674a1.674,1.674,0,0,0,0,3.348Z" transform="translate(-253.032 -170.797)" fill="#339caa"/>
      <path id="Path_103" data-name="Path 103" d="M403.348,320h-1.674a1.674,1.674,0,0,0,0,3.348h1.674a1.674,1.674,0,0,0,0-3.348Z" transform="translate(-309.964 -170.797)" fill="#339caa"/>
      <path id="Path_104" data-name="Path 104" d="M329.674,227.348h1.674a1.674,1.674,0,0,0,0-3.348h-1.674a1.674,1.674,0,0,0,0,3.348Z" transform="translate(-253.032 -94.887)" fill="#339caa"/>
      <path id="Path_105" data-name="Path 105" d="M57.674,233.484h46.877a1.674,1.674,0,0,0,0-3.348h-6.7V216.742a1.674,1.674,0,0,0-1.674-1.674h-6.7a1.674,1.674,0,0,0-1.674,1.674v13.394H86.135V201.674A1.674,1.674,0,0,0,84.461,200h-6.7a1.674,1.674,0,0,0-1.674,1.674v28.461H74.416V208.371a1.674,1.674,0,0,0-1.674-1.674h-6.7a1.674,1.674,0,0,0-1.674,1.674v21.765h-6.7a1.674,1.674,0,0,0,0,3.348Zm33.484-15.068h3.348v11.719H91.158ZM79.439,203.348h3.348v26.787H79.439Zm-11.719,6.7h3.348v20.09H67.719Z" transform="translate(-37.955 -75.91)" fill="#339caa"/>
    </g>
  </g>
</svg>
