<svg id="Group_82" data-name="Group 82" xmlns="http://www.w3.org/2000/svg" xmlns:xlink="http://www.w3.org/1999/xlink" width="131.412" height="165.149" viewBox="0 0 131.412 165.149">
  <defs>
    <linearGradient id="linear-gradient" x1="-0.053" y1="0.683" x2="1.396" y2="0.683" gradientUnits="objectBoundingBox">
      <stop offset="0" stop-color="#3c556c"/>
      <stop offset="0.011" stop-color="#3f586e" stop-opacity="0.98"/>
      <stop offset="0.216" stop-color="#80909e" stop-opacity="0.627"/>
      <stop offset="0.42" stop-color="#b3bcc4" stop-opacity="0.353"/>
      <stop offset="0.621" stop-color="#d7dbdf" stop-opacity="0.157"/>
      <stop offset="0.816" stop-color="#edeeef" stop-opacity="0.039"/>
      <stop offset="1" stop-color="#f5f5f5" stop-opacity="0"/>
    </linearGradient>
    <linearGradient id="linear-gradient-2" x1="0.074" y1="0.852" x2="0.838" y2="-0.105" gradientUnits="objectBoundingBox">
      <stop offset="0.152" stop-color="#fff"/>
      <stop offset="0.187" stop-color="#fff" stop-opacity="0.922"/>
      <stop offset="0.299" stop-color="#fff" stop-opacity="0.678"/>
      <stop offset="0.411" stop-color="#fff" stop-opacity="0.471"/>
      <stop offset="0.52" stop-color="#fff" stop-opacity="0.302"/>
      <stop offset="0.624" stop-color="#fff" stop-opacity="0.173"/>
      <stop offset="0.723" stop-color="#fff" stop-opacity="0.078"/>
      <stop offset="0.814" stop-color="#fff" stop-opacity="0.02"/>
      <stop offset="0.891" stop-color="#fff" stop-opacity="0"/>
    </linearGradient>
  </defs>
  <path id="Path_3548" data-name="Path 3548" d="M198.351,233.344c-4.955,25.807-44.42,14.354-67.307-3.741-18.859-14.913-23.815-42.911-23.815-42.911a125.781,125.781,0,0,1,40.123,2.116C172.6,194.616,203.306,207.537,198.351,233.344Z" transform="translate(-77.55 -93.343)" opacity="0.4" fill="url(#linear-gradient)" style="mix-blend-mode: multiply;isolation: isolate"/>
  <path id="Path_3549" data-name="Path 3549" d="M115.556,121.323a29.239,29.239,0,0,0-29.04,29.439c.11,16.148,29.69,65.481,29.69,65.481s28.9-49.734,28.789-65.881A29.241,29.241,0,0,0,115.556,121.323Zm.289,42.346a14.012,14.012,0,1,1,13.916-14.106A14.012,14.012,0,0,1,115.845,163.67Z" transform="translate(-86.516 -121.323)" fill="#339caa"/>
  <path id="Path_3550" data-name="Path 3550" d="M97.408,179.518c7.16,13.75,14.083,25.3,14.083,25.3s21.189-36.465,27.208-57.085C132.056,164.829,111.451,179.737,97.408,179.518Z" transform="translate(-81.801 -109.892)" opacity="0.62" fill="url(#linear-gradient-2)" style="mix-blend-mode: soft-light;isolation: isolate"/>
</svg>
