<svg xmlns="http://www.w3.org/2000/svg" width="120" height="124.138" viewBox="0 0 120 124.138">
  <path id="how1" d="M35.056,115.512l1.358.905v21.651a2.069,2.069,0,0,0,2.069,2.069H63.31a2.069,2.069,0,0,0,2.069-2.069V102.9h37.241v35.172a2.069,2.069,0,0,0,2.069,2.069h24.828a2.069,2.069,0,0,0,2.069-2.069V116.417l1.358-.905A24.778,24.778,0,0,0,144,94.854V73.931a6.2,6.2,0,0,0-8.493-5.769,6.205,6.205,0,0,0-8.059-4.22v-37.6A10.356,10.356,0,0,0,117.1,16H50.9A10.357,10.357,0,0,0,40.552,26.345v8.276a2.069,2.069,0,0,0,2.069,2.069h5.72A2.069,2.069,0,0,0,49.882,36a4.138,4.138,0,1,1,0,5.516,2.069,2.069,0,0,0-1.542-.689h-5.72A2.069,2.069,0,0,0,40.552,42.9V63.942a6.2,6.2,0,0,0-8.057,4.221A6.2,6.2,0,0,0,24,73.931V94.855a24.778,24.778,0,0,0,11.056,20.658ZM61.241,136H40.552V117.379h20.69ZM44.688,93.561V88.414h0v-26.9H81.931V73.931h-2.8a8.277,8.277,0,1,0,0,12.414h2.8V98.759H49.049A15.973,15.973,0,0,0,44.688,93.561ZM84,82.207H78.28a2.069,2.069,0,0,0-1.542.689,4.138,4.138,0,1,1,0-5.516,2.069,2.069,0,0,0,1.541.689H84A2.069,2.069,0,0,0,86.069,76V61.517H98.483v2.8a8.275,8.275,0,1,0,12.414,0v-2.8H123.31V93.562a15.973,15.973,0,0,0-4.36,5.2H86.069V84.276A2.069,2.069,0,0,0,84,82.207ZM127.448,136h-20.69V117.379h20.69Zm10.345-64.138a2.071,2.071,0,0,1,2.069,2.069V94.855a20.648,20.648,0,0,1-9.213,17.215l-1.758,1.172H106.759V102.9h10.7a16.057,16.057,0,0,0-.353,3.324V109.1h4.138V106.22a11.848,11.848,0,0,1,5.287-9.878,2.069,2.069,0,0,0,.921-1.722l0-8.275a2.069,2.069,0,1,1,4.138,0V96.69h4.138V88.413h0V73.931a2.071,2.071,0,0,1,2.069-2.069Zm-8.276-4.138a2.069,2.069,0,0,1,2.069,2.069v10.7a6.222,6.222,0,0,0-4.137,0v-10.7a2.071,2.071,0,0,1,2.069-2.069ZM123.31,26.345V57.379H108.828a2.069,2.069,0,0,0-2.069,2.069v5.72a2.069,2.069,0,0,0,.689,1.542,4.129,4.129,0,0,1,1.373,3.322,4.138,4.138,0,1,1-6.889-3.322,2.069,2.069,0,0,0,.689-1.542v-5.72a2.069,2.069,0,0,0-2.069-2.069H86.069V44.966h2.8a8.277,8.277,0,1,0,0-12.414h-2.8V20.138H117.1a6.214,6.214,0,0,1,6.207,6.207ZM44.69,44.966h2.8a8.277,8.277,0,1,0,0-12.414h-2.8V26.345A6.214,6.214,0,0,1,50.9,20.138H81.931V34.621A2.069,2.069,0,0,0,84,36.69h5.72A2.069,2.069,0,0,0,91.261,36a4.138,4.138,0,1,1,0,5.516,2.069,2.069,0,0,0-1.542-.689H84A2.069,2.069,0,0,0,81.931,42.9V57.379H44.69ZM38.483,67.724a2.071,2.071,0,0,1,2.069,2.069v10.7a6.222,6.222,0,0,0-4.137,0v-10.7a2.071,2.071,0,0,1,2.069-2.069ZM28.138,73.931a2.069,2.069,0,0,1,4.138,0V88.413h0V96.69h4.138V86.345a2.069,2.069,0,0,1,4.138,0l0,8.275a2.069,2.069,0,0,0,.922,1.722,11.848,11.848,0,0,1,5.287,9.878V109.1H50.9V106.22a16.057,16.057,0,0,0-.353-3.324h10.7v10.345H39.109l-1.758-1.172a20.648,20.648,0,0,1-9.213-17.215Z" transform="translate(-24 -16)" fill="#cc2b5e"/>
</svg>
