<svg xmlns="http://www.w3.org/2000/svg" width="143" height="142.998" viewBox="0 0 143 142.998">
  <g id="how4" transform="translate(-1 -1)">
    <path id="Path_3573" data-name="Path 3573" d="M40.838,46.064V29.919a6.919,6.919,0,1,0-13.838,0v6.919h4.613V29.919a2.306,2.306,0,1,1,4.613,0V46.064Z" transform="translate(33.967 28.741)" fill="#cc2b5e"/>
    <path id="Path_3574" data-name="Path 3574" d="M64.515,58.822V40.371A25.388,25.388,0,0,0,31.534,16.162l1.386,4.4A20.772,20.772,0,0,1,59.9,40.371V58.822a16.145,16.145,0,0,1-32.29,0V40.371a11.532,11.532,0,1,1,23.064,0v2.306H55.29V40.371a16.145,16.145,0,1,0-32.29,0V58.822a20.758,20.758,0,0,0,41.515,0Z" transform="translate(28.741 18.29)" fill="#cc2b5e"/>
    <path id="Path_3575" data-name="Path 3575" d="M27,37.919a11.532,11.532,0,0,0,23.064,0V31H45.451v6.919a6.919,6.919,0,0,1-13.838,0V31H27Z" transform="translate(33.967 39.192)" fill="#cc2b5e"/>
    <path id="Path_3576" data-name="Path 3576" d="M137.078,111.708a6.91,6.91,0,0,0-6.495,4.613h-8.7l-4.613-4.613H93.007v.007l-7.067-1.884-1.349-5.392c.673-.3,1.358-.581,2.007-.936.588-.321,1.158-.669,1.725-1.017h28.424a6.919,6.919,0,1,0,0-4.613H94.421a39.239,39.239,0,0,0,7.392-9.226h15.465l4.613-4.613h8.7a6.919,6.919,0,1,0,0-4.613h-10.6l-4.613,4.613H104.092a39.033,39.033,0,0,0,1.594-4.613H107.1a13.812,13.812,0,0,0,11.034-22.155l1.236-4.325A40.745,40.745,0,0,0,80.188,1H64.809A40.743,40.743,0,0,0,25.633,52.938l1.236,4.325A13.812,13.812,0,0,0,37.9,79.418h1.412a39.453,39.453,0,0,0,1.594,4.613H29.63l-4.613-4.613h-10.6a6.919,6.919,0,1,0,0,4.613h8.7l4.613,4.613H43.189a39.3,39.3,0,0,0,7.392,9.226H28.253a6.919,6.919,0,1,0,0,4.613H56.677c.57.348,1.137.7,1.728,1.019.648.353,1.331.632,2,.934l-1.349,5.392-7.067,1.884v0H27.722l-4.613,4.613h-8.7a6.919,6.919,0,1,0,0,4.613h10.6l4.613-4.613h7.8a25.4,25.4,0,0,0-13.363,22.333V144h96.869v-5.344a25.4,25.4,0,0,0-13.363-22.333h7.8l4.613,4.613h10.6a6.907,6.907,0,1,0,6.495-9.226ZM123.24,97.869a2.306,2.306,0,1,1-2.306,2.306A2.309,2.309,0,0,1,123.24,97.869Zm13.838-18.451a2.306,2.306,0,1,1-2.306,2.306A2.309,2.309,0,0,1,137.078,79.418ZM7.919,84.031a2.306,2.306,0,1,1,2.306-2.306A2.309,2.309,0,0,1,7.919,84.031Zm13.838,18.451a2.306,2.306,0,1,1,2.306-2.306A2.309,2.309,0,0,1,21.758,102.482ZM7.919,120.934a2.306,2.306,0,1,1,2.306-2.306A2.309,2.309,0,0,1,7.919,120.934Zm78.038-6.324-1.446,11.562L76.4,120.765l8.16-6.527Zm21.138-39.8h-.447a39.449,39.449,0,0,0,.447-5.833V56.354a9.226,9.226,0,1,1,0,18.451ZM64.809,5.613h3.049A12.423,12.423,0,0,0,65.7,9.5l4.375,1.46a7.807,7.807,0,0,1,7.413-5.344h2.7A36.129,36.129,0,0,1,114.93,51.67l-.609,2.131a13.72,13.72,0,0,0-7.226-2.06A25.317,25.317,0,0,0,84.379,26.516l-11.7-1.232a10.482,10.482,0,0,1-9.4-10.446H58.66a15.091,15.091,0,0,0,1.905,7.369A25.244,25.244,0,0,0,37.9,47.433v4.308a13.734,13.734,0,0,0-7.228,2.06l-.609-2.131A36.136,36.136,0,0,1,64.809,5.613ZM37.9,74.805a9.226,9.226,0,1,1,0-18.451V68.97a39.5,39.5,0,0,0,.447,5.835Zm4.613-5.835V47.433A20.657,20.657,0,0,1,61.4,26.76l2.758-.251A15.111,15.111,0,0,0,72.2,29.872L83.9,31.1a20.713,20.713,0,0,1,18.583,20.642V68.97a34.694,34.694,0,0,1-18.1,30.479,25.22,25.22,0,0,1-23.777,0A34.7,34.7,0,0,1,42.515,68.97ZM72.5,107.1a29.4,29.4,0,0,0,7.736-1.066l1.2,4.8-8.937,7.15-8.935-7.148,1.2-4.8A29.494,29.494,0,0,0,72.5,107.1Zm-12.065,7.141,8.16,6.527-8.109,5.406-1.446-11.562Zm55.887,24.418v.731H28.677v-.731A20.782,20.782,0,0,1,44.086,118.6l10.455-2.788,2.293,18.341L72.5,123.706l15.665,10.443,2.293-18.341,10.455,2.788A20.778,20.778,0,0,1,116.321,138.654Zm20.758-17.72a2.306,2.306,0,1,1,2.306-2.306A2.309,2.309,0,0,1,137.078,120.934Z" transform="translate(0 0)" fill="#cc2b5e"/>
  </g>
</svg>
