<svg xmlns="http://www.w3.org/2000/svg" width="1051.094" height="210.091" viewBox="0 0 1051.094 210.091">
  <g id="Logo" transform="translate(-51.682 -731.799)">
    <path id="Path_1" data-name="Path 1" d="M348.464,866.774V735h41.731V939.866c-16.255,0-31.337.337-46.371-.333-2.505-.112-5.351-4.279-7.134-7.133q-36.534-58.477-72.795-117.127c-2.272-3.661-4.617-7.278-9.286-10.7V938.778H211.425c0-3.734-.012-7.555,0-11.377.193-60.884.566-121.771.381-182.655-.024-9,2.854-10.478,11.477-11.839,28.884-4.556,46.014,6.231,59.39,32.569,16.648,32.79,38.278,63.056,57.788,94.389,1.654,2.658,3.569,5.155,5.359,7.728Z" transform="translate(481.528 0.281)" fill="#fff"/>
    <path id="Path_2" data-name="Path 2" d="M51.682,853.273v-37.54c16.488,0,32.983.109,49.475-.044,9.482-.088,16.62-4.468,21.06-12.915,4.348-8.274,3.926-17.246-2.561-23.132a37.907,37.907,0,0,0-20.667-9.261c-15.388-1.377-30.984-.421-47.166-.421V731.8c23.071,1.614,46.608.277,68.584,5.5,32.839,7.808,49.19,45.761,36.628,77.419-1.184,2.979-2.678,5.833-4.312,9.354,15.934,11.1,26.761,25.139,29.334,44.874,4.127,31.666-18.832,62.224-50.394,66.107a80.812,80.812,0,0,1-9.767.285c-23.123.024-46.251.012-70.057.012V899.015c18.021,0,35.669.012,53.316-.008,6.158-.008,12.333.157,18.471-.221,12.742-.783,22.136-10.185,22.425-22.052.285-11.546-7.824-21.526-20.394-22.734-12.208-1.176-24.589-.622-36.9-.711C76.829,853.205,64.9,853.273,51.682,853.273Z" transform="translate(0 0)" fill="#fff"/>
    <path id="Path_3" data-name="Path 3" d="M109.032,937.2V732.151h42.333V895.745H245.3V937.2Z" transform="translate(172.881 1.061)" fill="#fff"/>
    <path id="Path_4" data-name="Path 4" d="M325.86,831.478l82.1,107.717c-18.764,0-35.54.237-52.3-.257-2.489-.072-5.432-3.172-7.234-5.572q-31.241-41.689-62.148-83.63c-5.865-7.945-5.339-28.852.867-36.761,19.43-24.774,38.868-49.539,58.575-74.088,2.212-2.754,6.094-5.725,9.31-5.849,15.484-.606,31-.273,49.366-.273C377.514,766.556,352.03,798.583,325.86,831.478Z" transform="translate(694.812 2.638)" fill="#fff"/>
    <path id="Path_5" data-name="Path 5" d="M172.085,937.3V732.259h42.3V937.3Z" transform="translate(362.954 1.387)" fill="#fff"/>
  </g>
</svg>
