<svg xmlns="http://www.w3.org/2000/svg" xmlns:xlink="http://www.w3.org/1999/xlink" width="115.473" height="63.2" viewBox="0 0 115.473 63.2">
  <defs>
    <clipPath id="clip-path">
      <rect id="Rectangle_59" data-name="Rectangle 59" width="115.473" height="63.2" transform="translate(-67.5 4507)" fill="#cc2b5e"/>
    </clipPath>
  </defs>
  <g id="Mask_Group_1" data-name="Mask Group 1" transform="translate(67.5 -4507)" clip-path="url(#clip-path)">
    <g id="testing" transform="translate(-41.363 4507)">
      <path id="Path_81" data-name="Path 81" d="M77.4,45.8H68.226V30.51h1.493a2.584,2.584,0,0,0,2.15-4.017l-5.288-7.932a2.923,2.923,0,0,0-4.865,0l-5.288,7.932a2.586,2.586,0,0,0,2.151,4.018h1.493V45.8H50.9a3.024,3.024,0,0,0-1.019.188V20.316a3.062,3.062,0,0,0-3.058-3.058h-26.5a3.062,3.062,0,0,0-3.058,3.058V48.858a3.062,3.062,0,0,0,3.058,3.058H29.49v15.29H28a2.584,2.584,0,0,0-2.15,4.017l5.288,7.932a2.923,2.923,0,0,0,4.865,0l5.288-7.932a2.586,2.586,0,0,0-2.151-4.018H37.645V51.916h9.174a3.024,3.024,0,0,0,1.019-.188V77.4A3.062,3.062,0,0,0,50.9,80.458H77.4A3.062,3.062,0,0,0,80.458,77.4V48.858A3.062,3.062,0,0,0,77.4,45.8ZM58.578,28.471a.545.545,0,0,1-.454-.848l5.288-7.932a.918.918,0,0,1,1.473,0l5.288,7.932a.54.54,0,0,1,.092.3.547.547,0,0,1-.546.545H66.187V45.8H62.11V28.471ZM50.9,47.839H77.4a1.02,1.02,0,0,1,1.019,1.019v5.1H49.878v-5.1A1.02,1.02,0,0,1,50.9,47.839ZM20.316,19.3h26.5a1.02,1.02,0,0,1,1.019,1.019v5.1H19.3v-5.1A1.02,1.02,0,0,1,20.316,19.3ZM39.139,69.245a.545.545,0,0,1,.454.848L34.3,78.025a.918.918,0,0,1-1.473,0l-5.288-7.932a.54.54,0,0,1-.092-.3A.548.548,0,0,1,28,69.245h3.532V51.916h4.077V69.245Zm7.681-19.368h-26.5A1.02,1.02,0,0,1,19.3,48.858V27.452H47.839V48.858A1.02,1.02,0,0,1,46.819,49.878ZM77.4,78.42H50.9A1.02,1.02,0,0,1,49.878,77.4V55.994H78.42V77.4A1.02,1.02,0,0,1,77.4,78.42Z" transform="translate(-17.258 -17.258)" fill="#cc2b5e"/>
      <path id="Path_82" data-name="Path 82" d="M604.032,569.516h2.039v2.039h-2.039Z" transform="translate(-569.374 -536.897)" fill="#cc2b5e"/>
      <path id="Path_83" data-name="Path 83" d="M673.065,569.516H675.1v2.039h-2.039Z" transform="translate(-634.329 -536.897)" fill="#cc2b5e"/>
      <path id="Path_84" data-name="Path 84" d="M742.1,569.516h2.039v2.039H742.1Z" transform="translate(-699.284 -536.897)" fill="#cc2b5e"/>
      <path id="Path_85" data-name="Path 85" d="M224.355,86.29h2.039v2.039h-2.039Z" transform="translate(-212.123 -82.213)" fill="#cc2b5e"/>
      <path id="Path_86" data-name="Path 86" d="M86.29,86.29h2.039v2.039H86.29Z" transform="translate(-82.213 -82.213)" fill="#cc2b5e"/>
      <path id="Path_87" data-name="Path 87" d="M155.323,86.29h2.039v2.039h-2.039Z" transform="translate(-147.168 -82.213)" fill="#cc2b5e"/>
      <path id="Path_88" data-name="Path 88" d="M732.3,748.442a4.076,4.076,0,0,0-3.387-6.346h-4.077v14.271h6.116a4.077,4.077,0,0,0,1.349-7.925Zm-5.426-4.307h2.039a2.039,2.039,0,0,1,0,4.077h-2.039Zm4.077,10.194h-4.077v-4.077h4.077a2.039,2.039,0,0,1,0,4.077Z" transform="translate(-683.045 -699.284)" fill="#cc2b5e"/>
      <path id="Path_89" data-name="Path 89" d="M195.955,258.871a6.122,6.122,0,0,0-6.116,6.116v8.155h2.039v-4.077h8.155v4.077h2.039v-8.155A6.122,6.122,0,0,0,195.955,258.871Zm-4.077,8.155v-2.039a4.077,4.077,0,1,1,8.155,0v2.039Z" transform="translate(-179.645 -244.6)" fill="#cc2b5e"/>
    </g>
  </g>
</svg>
