<svg id="Page-1" xmlns="http://www.w3.org/2000/svg" width="68.951" height="63.2" viewBox="0 0 68.951 63.2">
  <g id="_002---API" data-name="002---API" transform="translate(0 0)">
    <path id="Shape" d="M58.029,40.218H14.938a14.938,14.938,0,0,1,0-29.876c.1,0,.195,0,.291,0a17.235,17.235,0,0,1,31.595,0,13.234,13.234,0,0,1,11.885,8.062,10.916,10.916,0,0,1-.679,21.812ZM14.938,12.64a12.64,12.64,0,0,0,0,25.28H58.029a8.618,8.618,0,0,0,0-17.236h-.115a1.149,1.149,0,0,1-1.083-.766A10.9,10.9,0,0,0,46.471,12.64c-.112,0-.224,0-.336.008a1.159,1.159,0,0,1-1.154-.737,14.936,14.936,0,0,0-27.923.031,1.147,1.147,0,0,1-1.19.737,9.252,9.252,0,0,0-.931-.04Z" transform="translate(0 0)" fill="#cc2b5e"/>
    <path id="Shape-2" data-name="Shape" d="M7.184,30.121A1.145,1.145,0,0,1,6.29,29.7,10.312,10.312,0,0,1,9.932,13.88a1.149,1.149,0,1,1,.982,2.078A8.078,8.078,0,0,0,6.3,23.227a7.9,7.9,0,0,0,1.778,5.022,1.149,1.149,0,0,1-.892,1.872Z" transform="translate(0.596 2.053)" fill="#cc2b5e"/>
    <path id="Shape-3" data-name="Shape" d="M17.149,31.088a1.15,1.15,0,0,1-1.09-1.513l4.6-13.789a1.149,1.149,0,1,1,2.18.727L18.239,30.3a1.149,1.149,0,0,1-1.09.786Z" transform="translate(2.385 2.236)" fill="#cc2b5e"/>
    <path id="Shape-4" data-name="Shape" d="M25.745,31.088a1.149,1.149,0,0,1-1.09-.786l-4.6-13.789a1.149,1.149,0,1,1,2.18-.727l4.6,13.789a1.15,1.15,0,0,1-1.09,1.513Z" transform="translate(2.982 2.236)" fill="#cc2b5e"/>
    <path id="Shape-5" data-name="Shape" d="M24.174,24.3H18.819a1.149,1.149,0,1,1,0-2.3h5.355a1.149,1.149,0,0,1,0,2.3Z" transform="translate(2.634 3.28)" fill="#cc2b5e"/>
    <path id="Shape-6" data-name="Shape" d="M28.149,31.087A1.149,1.149,0,0,1,27,29.938V16.149a1.149,1.149,0,1,1,2.3,0V29.938A1.149,1.149,0,0,1,28.149,31.087Z" transform="translate(4.025 2.236)" fill="#cc2b5e"/>
    <path id="Shape-7" data-name="Shape" d="M32.745,24.193h-4.6A1.149,1.149,0,0,1,27,23.044V16.149A1.149,1.149,0,0,1,28.149,15h4.6a4.6,4.6,0,1,1,0,9.193Zm-3.447-2.3h3.447a2.3,2.3,0,1,0,0-4.6H29.3Z" transform="translate(4.025 2.236)" fill="#cc2b5e"/>
    <path id="Shape-8" data-name="Shape" d="M40.149,31.087A1.149,1.149,0,0,1,39,29.938V16.149a1.149,1.149,0,0,1,2.3,0V29.938A1.149,1.149,0,0,1,40.149,31.087Z" transform="translate(5.814 2.236)" fill="#cc2b5e"/>
    <path id="Shape-9" data-name="Shape" d="M44.044,17.3H37.149a1.149,1.149,0,0,1,0-2.3h6.894a1.149,1.149,0,0,1,0,2.3Z" transform="translate(5.367 2.236)" fill="#cc2b5e"/>
    <path id="Shape-10" data-name="Shape" d="M44.044,29.3H37.149a1.149,1.149,0,0,1,0-2.3h6.894a1.149,1.149,0,0,1,0,2.3Z" transform="translate(5.367 4.025)" fill="#cc2b5e"/>
    <path id="Shape-11" data-name="Shape" d="M26.9,58.34a2.117,2.117,0,0,1-.842-.176l-7.189-2.98a2.141,2.141,0,0,1-1.166-1.172,2.08,2.08,0,0,1,.026-1.629l1.712-4.139a23.419,23.419,0,0,1-4.469-4.471L10.8,45.5a2.1,2.1,0,0,1-1.625,0,2.124,2.124,0,0,1-1.149-1.143L5.047,37.129a2.115,2.115,0,0,1,1.115-2.764l4.072-1.678a1.149,1.149,0,0,1,.875,2.126l-3.874,1.6,2.846,6.9,4.851-2a1.15,1.15,0,0,1,1.379.4,21.156,21.156,0,0,0,5.2,5.2,1.148,1.148,0,0,1,.4,1.381l-2,4.84,6.9,2.859,2-4.843a1.149,1.149,0,0,1,1.262-.692,20.762,20.762,0,0,0,7.34-.01,1.152,1.152,0,0,1,1.265.69l2.014,4.851,6.886-2.855-2-4.852a1.149,1.149,0,0,1,.407-1.382,20.925,20.925,0,0,0,5.2-5.187,1.147,1.147,0,0,1,1.379-.4l4.849,2.006,2.861-6.9L57.5,35.26a1.148,1.148,0,0,1,.4-2.224,1.2,1.2,0,0,1,.453.088l2.953,1.23a2.1,2.1,0,0,1,1.154,1.159,2.135,2.135,0,0,1,0,1.624l-2.989,7.209a2.12,2.12,0,0,1-2.8,1.143l-4.148-1.717a23.172,23.172,0,0,1-4.467,4.462l1.722,4.173a2.058,2.058,0,0,1,.015,1.6,2.14,2.14,0,0,1-1.17,1.174l-7.2,2.985a2.117,2.117,0,0,1-2.779-1.156L36.9,52.849a23.092,23.092,0,0,1-6.315.009l-1.722,4.163A2.126,2.126,0,0,1,26.9,58.34Zm-.162-2.2h0Zm.214-.1h0ZM47.651,53.3l0,.008Zm-27.8-.02,0,0Zm27.89-.222h0Zm-27.99,0h0ZM57.341,43.47h0Zm-47.423-.1h0Zm47.637,0h0Zm2.871-6.9h0ZM7.169,36.246v0Z" transform="translate(0.728 4.86)" fill="#cc2b5e"/>
    <path id="Shape-12" data-name="Shape" d="M32.1,45.641A17.325,17.325,0,0,1,16.006,34.56a1.149,1.149,0,1,1,2.147-.82,14.927,14.927,0,0,0,27.89,0,1.149,1.149,0,1,1,2.147.82A17.325,17.325,0,0,1,32.1,45.641Z" transform="translate(2.374 4.918)" fill="#cc2b5e"/>
    <path id="Shape-13" data-name="Shape" d="M19.149,13.193a1.15,1.15,0,0,1-1.09-1.513C20.59,4.088,26.924,4,27.193,4A1.149,1.149,0,1,1,27.2,6.3c-.223,0-4.972.146-6.959,6.109a1.149,1.149,0,0,1-1.09.786Z" transform="translate(2.684 0.596)" fill="#cc2b5e"/>
  </g>
</svg>
