<svg xmlns="http://www.w3.org/2000/svg" width="59.15" height="77.152" viewBox="0 0 59.15 77.152">
  <g id="tax" transform="translate(-0.5 0.001)">
    <path id="Path_90" data-name="Path 90" d="M39.635,21.523a3.836,3.836,0,0,0,.5-.97,3.752,3.752,0,0,1,1.479.591,5.658,5.658,0,0,0,3.023.968,5.862,5.862,0,0,0,1.016-.093,5.4,5.4,0,0,0,3.5-2.2,2.943,2.943,0,0,1,4.282-.755,5.4,5.4,0,0,0,4.042.873L57.023,17.4a2.941,2.941,0,0,1-2.307-.567,5.473,5.473,0,0,0-7.539,1.329A2.945,2.945,0,0,1,45.2,19.486a2.548,2.548,0,0,1-1.123-.027,5.113,5.113,0,0,0,2.058-1.092,5.4,5.4,0,0,0,1.929-3.657,2.939,2.939,0,0,1,1.05-2.132,2.9,2.9,0,0,1,2.281-.664,5.288,5.288,0,0,0,3.936-1.265L53.676,8.681a3.071,3.071,0,0,1-2.282.662,5.474,5.474,0,0,0-5.865,4.921A2.941,2.941,0,0,1,42.2,17.058a5.715,5.715,0,0,0-2.367.316,3.857,3.857,0,0,0-1.493-1.459L44.091,4.431A1.286,1.286,0,0,0,42.934,2.57a3.318,3.318,0,0,1-2.407-1,5.928,5.928,0,0,0-8.034,0,3.4,3.4,0,0,1-2.412,1,3.4,3.4,0,0,1-2.412-1,5.937,5.937,0,0,0-8.039,0,3.329,3.329,0,0,1-2.414,1,1.286,1.286,0,0,0-1.151,1.861l5.742,11.485a3.816,3.816,0,0,0-1.293,5.607A27.025,27.025,0,0,0,.5,47.576V70.721a6.437,6.437,0,0,0,6.429,6.429H53.221a6.437,6.437,0,0,0,6.429-6.429V47.576A27.026,27.026,0,0,0,39.635,21.523ZM21.236,3.575a3.4,3.4,0,0,1,4.827,0,5.935,5.935,0,0,0,8.037,0,3.392,3.392,0,0,1,4.82,0,6.833,6.833,0,0,0,2.087,1.261l-5.3,10.593H24.44L19.145,4.837a6.869,6.869,0,0,0,2.091-1.263Zm2.41,17a1.286,1.286,0,0,1,0-2.572H36.5a1.286,1.286,0,0,1,0,2.572ZM57.078,70.721a3.858,3.858,0,0,1-3.858,3.858H6.929a3.857,3.857,0,0,1-3.858-3.858V47.576A24.458,24.458,0,0,1,27.5,23.144h5.143A24.459,24.459,0,0,1,57.078,47.576Zm0,0" fill="#339caa"/>
    <path id="Path_91" data-name="Path 91" d="M130.84,273.766l15.431-15.43,1.818,1.818-15.43,15.431Zm0,0" transform="translate(-109.39 -216.813)" fill="#339caa"/>
    <path id="Path_92" data-name="Path 92" d="M196.358,320a3.858,3.858,0,1,0,3.858,3.858A3.857,3.857,0,0,0,196.358,320Zm0,5.143a1.286,1.286,0,1,1,1.286-1.286A1.286,1.286,0,0,1,196.358,325.139Zm0,0" transform="translate(-161.139 -268.563)" fill="#339caa"/>
    <path id="Path_93" data-name="Path 93" d="M132.358,263.711a3.858,3.858,0,1,0-3.858-3.858A3.858,3.858,0,0,0,132.358,263.711Zm0-5.143a1.286,1.286,0,1,1-1.286,1.286A1.286,1.286,0,0,1,132.358,258.568Zm0,0" transform="translate(-107.426 -214.85)" fill="#339caa"/>
    <path id="Path_94" data-name="Path 94" d="M90.5,200a18,18,0,1,0,18,18A18,18,0,0,0,90.5,200Zm0,33.433A15.43,15.43,0,1,1,105.933,218,15.43,15.43,0,0,1,90.5,233.429Zm0,0" transform="translate(-60.427 -167.851)" fill="#339caa"/>
  </g>
</svg>
