<svg xmlns="http://www.w3.org/2000/svg" width="103.8" height="63.619" viewBox="0 0 103.8 63.619">
  <g id="ui" transform="translate(-8 -104)">
    <path id="Path_95" data-name="Path 95" d="M103.429,104H16.371A8.38,8.38,0,0,0,8,112.371v46.877a8.38,8.38,0,0,0,8.371,8.371h87.058a8.38,8.38,0,0,0,8.371-8.371V112.371A8.38,8.38,0,0,0,103.429,104Zm-92.081,8.371a5.028,5.028,0,0,1,5.023-5.023h87.058a5.028,5.028,0,0,1,5.023,5.023v1.674h-97.1Zm97.1,46.877a5.028,5.028,0,0,1-5.023,5.023H16.371a5.028,5.028,0,0,1-5.023-5.023V117.394h97.1Z" fill="#339caa"/>
    <path id="Path_96" data-name="Path 96" d="M45.023,128H41.674a1.674,1.674,0,0,0,0,3.348h3.348a1.674,1.674,0,0,0,0-3.348Z" transform="translate(-25.303 -18.977)" fill="#339caa"/>
    <path id="Path_97" data-name="Path 97" d="M85.023,128H81.674a1.674,1.674,0,0,0,0,3.348h3.348a1.674,1.674,0,0,0,0-3.348Z" transform="translate(-56.932 -18.977)" fill="#339caa"/>
    <path id="Path_98" data-name="Path 98" d="M125.023,128h-3.348a1.674,1.674,0,0,0,0,3.348h3.348a1.674,1.674,0,0,0,0-3.348Z" transform="translate(-88.561 -18.977)" fill="#339caa"/>
    <path id="Path_99" data-name="Path 99" d="M361.674,227.348h13.394a1.674,1.674,0,0,0,0-3.348H361.674a1.674,1.674,0,0,0,0,3.348Z" transform="translate(-278.335 -94.887)" fill="#339caa"/>
    <path id="Path_100" data-name="Path 100" d="M329.674,259.348h20.09a1.674,1.674,0,0,0,0-3.348h-20.09a1.674,1.674,0,0,0,0,3.348Z" transform="translate(-253.032 -120.19)" fill="#339caa"/>
    <path id="Path_101" data-name="Path 101" d="M329.674,291.348h20.09a1.674,1.674,0,0,0,0-3.348h-20.09a1.674,1.674,0,0,0,0,3.348Z" transform="translate(-253.032 -145.494)" fill="#339caa"/>
    <path id="Path_102" data-name="Path 102" d="M329.674,323.348h10.045a1.674,1.674,0,0,0,0-3.348H329.674a1.674,1.674,0,0,0,0,3.348Z" transform="translate(-253.032 -170.797)" fill="#339caa"/>
    <path id="Path_103" data-name="Path 103" d="M403.348,320h-1.674a1.674,1.674,0,0,0,0,3.348h1.674a1.674,1.674,0,0,0,0-3.348Z" transform="translate(-309.964 -170.797)" fill="#339caa"/>
    <path id="Path_104" data-name="Path 104" d="M329.674,227.348h1.674a1.674,1.674,0,0,0,0-3.348h-1.674a1.674,1.674,0,0,0,0,3.348Z" transform="translate(-253.032 -94.887)" fill="#339caa"/>
    <path id="Path_105" data-name="Path 105" d="M57.674,233.484h46.877a1.674,1.674,0,0,0,0-3.348h-6.7V216.742a1.674,1.674,0,0,0-1.674-1.674h-6.7a1.674,1.674,0,0,0-1.674,1.674v13.394H86.135V201.674A1.674,1.674,0,0,0,84.461,200h-6.7a1.674,1.674,0,0,0-1.674,1.674v28.461H74.416V208.371a1.674,1.674,0,0,0-1.674-1.674h-6.7a1.674,1.674,0,0,0-1.674,1.674v21.765h-6.7a1.674,1.674,0,0,0,0,3.348Zm33.484-15.068h3.348v11.719H91.158ZM79.439,203.348h3.348v26.787H79.439Zm-11.719,6.7h3.348v20.09H67.719Z" transform="translate(-37.955 -75.91)" fill="#339caa"/>
  </g>
</svg>
